<svg width="74" height="72" viewBox="0 0 74 72" fill="none" xmlns="http://www.w3.org/2000/svg">
<path d="M54.3089 46.5445C58.7871 40.5979 60.7928 33.2253 59.9248 25.9015C59.0568 18.5777 55.3791 11.8429 49.6274 7.04447C43.8758 2.24604 36.4744 -0.262148 28.9039 0.0217106C21.3335 0.305569 14.1524 3.36054 8.79719 8.57543C3.44202 13.7903 0.307775 20.7806 0.0214894 28.1476C-0.264796 35.5147 2.318 42.7153 7.25314 48.3088C12.1883 53.9024 19.1118 57.4764 26.6386 58.3158C34.1654 59.1552 41.7403 57.1981 47.848 52.8361H47.8434C47.979 53.0161 48.1301 53.1887 48.2966 53.3537L66.1022 70.6805C66.9694 71.5249 68.1458 71.9996 69.3726 72C70.5994 72.0004 71.7762 71.5266 72.644 70.6827C73.5118 69.8388 73.9996 68.6941 74 67.5002C74.0004 66.3064 73.5135 65.1613 72.6463 64.3168L54.8407 46.99C54.6755 46.827 54.4977 46.6811 54.3089 46.5445ZM55.5021 29.2447C55.5021 32.4952 54.8441 35.714 53.5658 38.7171C52.2875 41.7202 50.4139 44.4489 48.0519 46.7474C45.6899 49.0459 42.8858 50.8691 39.7997 52.1131C36.7136 53.357 33.4059 53.9972 30.0655 53.9972C26.7251 53.9972 23.4175 53.357 20.3314 52.1131C17.2453 50.8691 14.4412 49.0459 12.0792 46.7474C9.71717 44.4489 7.84353 41.7202 6.56522 38.7171C5.28691 35.714 4.62898 32.4952 4.62898 29.2447C4.62898 22.6799 7.30889 16.384 12.0792 11.742C16.8494 7.09998 23.3193 4.49213 30.0655 4.49213C36.8117 4.49213 43.2816 7.09998 48.0519 11.742C52.8222 16.384 55.5021 22.6799 55.5021 29.2447Z" fill="white"/>
</svg>
