<svg width="43" height="42" viewBox="0 0 43 42" fill="none" xmlns="http://www.w3.org/2000/svg">
<path d="M30.9062 10.5V9.1875C30.9062 6.75082 29.9152 4.41395 28.1512 2.69096C26.3872 0.967966 23.9947 0 21.5 0C19.0053 0 16.6128 0.967966 14.8488 2.69096C13.0848 4.41395 12.0938 6.75082 12.0938 9.1875V10.5H2.6875V36.75C2.6875 38.1424 3.25379 39.4777 4.2618 40.4623C5.26981 41.4469 6.63696 42 8.0625 42H34.9375C36.363 42 37.7302 41.4469 38.7382 40.4623C39.7462 39.4777 40.3125 38.1424 40.3125 36.75V10.5H30.9062ZM21.5 2.625C23.2819 2.625 24.9909 3.3164 26.2509 4.54711C27.5109 5.77782 28.2188 7.44702 28.2188 9.1875V10.5H14.7812V9.1875C14.7812 7.44702 15.4891 5.77782 16.7491 4.54711C18.0091 3.3164 19.7181 2.625 21.5 2.625ZM21.5 20.9816C25.972 16.4902 37.1547 24.3495 21.5 34.4531C5.84531 24.3469 17.028 16.4902 21.5 20.9816Z" fill="white"/>
</svg>
