<svg width="82" height="82" viewBox="0 0 82 82" fill="none" xmlns="http://www.w3.org/2000/svg">
<g clip-path="url(#clip0_49_263)">
<path d="M41 0C29.8736 0 28.4745 0.05125 24.1029 0.246C19.7313 0.451 16.7536 1.13775 14.145 2.1525C11.4075 3.17917 8.92847 4.79392 6.88288 6.88288C4.79392 8.92847 3.17917 11.4075 2.1525 14.145C1.13775 16.7485 0.445875 19.7312 0.246 24.0875C0.05125 28.4694 0 29.8634 0 41.0051C0 52.1366 0.05125 53.5306 0.246 57.9023C0.451 62.2688 1.13775 65.2464 2.1525 67.855C3.20312 70.5508 4.60225 72.8365 6.88288 75.1171C9.15838 77.3978 11.4441 78.802 14.1399 79.8475C16.7536 80.8623 19.7261 81.5541 24.0926 81.754C28.4694 81.9487 29.8634 82 41 82C52.1366 82 53.5255 81.9487 57.9023 81.754C62.2636 81.549 65.2515 80.8623 67.8601 79.8475C70.5958 78.8202 73.073 77.2055 75.1171 75.1171C77.3978 72.8365 78.7969 70.5508 79.8475 67.855C80.8571 65.2464 81.549 62.2688 81.754 57.9023C81.9487 53.5306 82 52.1366 82 41C82 29.8634 81.9487 28.4694 81.754 24.0926C81.549 19.7313 80.8571 16.7485 79.8475 14.145C78.8208 11.4075 77.2061 8.92847 75.1171 6.88288C73.0715 4.79392 70.5925 3.17917 67.855 2.1525C65.2412 1.13775 62.2585 0.445875 57.8971 0.246C53.5204 0.05125 52.1315 0 40.9897 0H41ZM37.3254 7.39025H41.0051C51.9521 7.39025 53.2487 7.42613 57.5691 7.626C61.5666 7.80538 63.7396 8.47675 65.1849 9.03537C67.0965 9.7785 68.4649 10.6702 69.8999 12.1053C71.3349 13.5402 72.2215 14.9035 72.9646 16.8202C73.5284 18.2604 74.1946 20.4334 74.374 24.4309C74.5739 28.7513 74.6149 30.0479 74.6149 40.9897C74.6149 51.9316 74.5739 53.2334 74.374 57.5537C74.1946 61.5512 73.5233 63.7191 72.9646 65.1644C72.3026 66.9422 71.2541 68.5509 69.8947 69.8743C68.4597 71.3092 67.0965 72.1959 65.1797 72.939C63.7448 73.5028 61.5718 74.169 57.5691 74.3535C53.2487 74.5482 51.9521 74.5944 41.0051 74.5944C30.0581 74.5944 28.7564 74.5482 24.436 74.3535C20.4385 74.169 18.2706 73.5028 16.8254 72.939C15.0461 72.2792 13.4357 71.2324 12.1104 69.8743C10.7485 68.55 9.69818 66.9394 9.03537 65.1592C8.47675 63.7191 7.80538 61.5461 7.626 57.5486C7.43125 53.2282 7.39025 51.9316 7.39025 40.9795C7.39025 30.0274 7.43125 28.741 7.626 24.4206C7.8105 20.4231 8.47675 18.2501 9.0405 16.8049C9.78363 14.8933 10.6754 13.5249 12.1104 12.0899C13.5454 10.6549 14.9086 9.76825 16.8254 9.02513C18.2706 8.46138 20.4385 7.79513 24.436 7.61063C28.2183 7.43638 29.684 7.38513 37.3254 7.38V7.39025ZM62.8889 14.1962C62.2428 14.1962 61.603 14.3235 61.0061 14.5708C60.4091 14.818 59.8668 15.1804 59.4099 15.6373C58.953 16.0941 58.5906 16.6365 58.3434 17.2334C58.0961 17.8304 57.9689 18.4701 57.9689 19.1163C57.9689 19.7624 58.0961 20.4021 58.3434 20.9991C58.5906 21.596 58.953 22.1384 59.4099 22.5952C59.8668 23.0521 60.4091 23.4145 61.0061 23.6617C61.603 23.909 62.2428 24.0363 62.8889 24.0363C64.1937 24.0363 65.4452 23.5179 66.3678 22.5952C67.2905 21.6725 67.8089 20.4211 67.8089 19.1163C67.8089 17.8114 67.2905 16.56 66.3678 15.6373C65.4452 14.7146 64.1937 14.1962 62.8889 14.1962ZM41.0051 19.9465C38.2124 19.9029 35.4388 20.4154 32.846 21.454C30.2532 22.4926 27.8929 24.0366 25.9025 25.9962C23.9122 27.9557 22.3315 30.2917 21.2526 32.868C20.1736 35.4443 19.618 38.2095 19.618 41.0026C19.618 43.7957 20.1736 46.5609 21.2526 49.1372C22.3315 51.7135 23.9122 54.0494 25.9025 56.009C27.8929 57.9685 30.2532 59.5125 32.846 60.5512C35.4388 61.5898 38.2124 62.1022 41.0051 62.0586C46.5326 61.9724 51.8046 59.7161 55.683 55.7767C59.5614 51.8373 61.7352 46.5308 61.7352 41.0026C61.7352 35.4744 59.5614 30.1679 55.683 26.2285C51.8046 22.2891 46.5326 20.0327 41.0051 19.9465ZM41.0051 27.3316C42.8001 27.3316 44.5775 27.6852 46.2358 28.3721C47.8941 29.059 49.4009 30.0658 50.6701 31.335C51.9394 32.6042 52.9462 34.111 53.6331 35.7693C54.32 37.4277 54.6735 39.205 54.6735 41C54.6735 42.795 54.32 44.5723 53.6331 46.2307C52.9462 47.889 51.9394 49.3958 50.6701 50.665C49.4009 51.9342 47.8941 52.941 46.2358 53.6279C44.5775 54.3148 42.8001 54.6684 41.0051 54.6684C37.38 54.6684 33.9034 53.2283 31.3401 50.665C28.7768 48.1017 27.3368 44.6251 27.3368 41C27.3368 37.3749 28.7768 33.8983 31.3401 31.335C33.9034 28.7717 37.38 27.3316 41.0051 27.3316Z" fill="black"/>
</g>
<defs>
<clipPath id="clip0_49_263">
<rect width="82" height="82" fill="white"/>
</clipPath>
</defs>
</svg>
