<svg width="74" height="72" viewBox="0 0 74 72" fill="none" xmlns="http://www.w3.org/2000/svg">
<path d="M6.16667 72C6.16667 72 0 72 0 66C0 60 6.16667 42 37 42C67.8333 42 74 60 74 66C74 72 67.8333 72 67.8333 72H6.16667ZM37 36C41.9065 36 46.6121 34.1036 50.0815 30.7279C53.5509 27.3523 55.5 22.7739 55.5 18C55.5 13.2261 53.5509 8.64773 50.0815 5.27208C46.6121 1.89642 41.9065 0 37 0C32.0935 0 27.3879 1.89642 23.9185 5.27208C20.4491 8.64773 18.5 13.2261 18.5 18C18.5 22.7739 20.4491 27.3523 23.9185 30.7279C27.3879 34.1036 32.0935 36 37 36Z" fill="white"/>
</svg>
