<svg width="74" height="74" viewBox="0 0 74 74" fill="none" xmlns="http://www.w3.org/2000/svg">
<path fill-rule="evenodd" clip-rule="evenodd" d="M69.375 9.25C69.375 8.02337 68.8877 6.84699 68.0204 5.97963C67.153 5.11228 65.9766 4.625 64.75 4.625H9.25C8.02337 4.625 6.84699 5.11228 5.97963 5.97963C5.11228 6.84699 4.625 8.02337 4.625 9.25V64.75C4.625 65.9766 5.11228 67.153 5.97963 68.0204C6.84699 68.8877 8.02337 69.375 9.25 69.375H64.75C65.9766 69.375 67.153 68.8877 68.0204 68.0204C68.8877 67.153 69.375 65.9766 69.375 64.75V9.25ZM0 9.25C0 6.79675 0.974551 4.44397 2.70926 2.70926C4.44397 0.974551 6.79675 0 9.25 0L64.75 0C67.2033 0 69.556 0.974551 71.2907 2.70926C73.0254 4.44397 74 6.79675 74 9.25V64.75C74 67.2033 73.0254 69.556 71.2907 71.2907C69.556 73.0254 67.2033 74 64.75 74H9.25C6.79675 74 4.44397 73.0254 2.70926 71.2907C0.974551 69.556 0 67.2033 0 64.75V9.25ZM20.8125 34.6875C20.1992 34.6875 19.611 34.9311 19.1773 35.3648C18.7436 35.7985 18.5 36.3867 18.5 37C18.5 37.6133 18.7436 38.2015 19.1773 38.6352C19.611 39.0689 20.1992 39.3125 20.8125 39.3125H47.6051L37.6753 49.2378C37.4602 49.4528 37.2897 49.708 37.1733 49.9889C37.057 50.2698 36.9971 50.5709 36.9971 50.875C36.9971 51.1791 37.057 51.4802 37.1733 51.7611C37.2897 52.042 37.4602 52.2972 37.6753 52.5122C37.8903 52.7273 38.1455 52.8978 38.4264 53.0142C38.7073 53.1305 39.0084 53.1904 39.3125 53.1904C39.6166 53.1904 39.9177 53.1305 40.1986 53.0142C40.4795 52.8978 40.7347 52.7273 40.9497 52.5122L54.8247 38.6372C55.0401 38.4224 55.211 38.1673 55.3275 37.8863C55.4441 37.6054 55.5041 37.3042 55.5041 37C55.5041 36.6958 55.4441 36.3946 55.3275 36.1137C55.211 35.8327 55.0401 35.5776 54.8247 35.3628L40.9497 21.4877C40.7347 21.2727 40.4795 21.1022 40.1986 20.9858C39.9177 20.8695 39.6166 20.8096 39.3125 20.8096C39.0084 20.8096 38.7073 20.8695 38.4264 20.9858C38.1455 21.1022 37.8903 21.2727 37.6753 21.4877C37.4602 21.7028 37.2897 21.958 37.1733 22.2389C37.057 22.5198 36.9971 22.8209 36.9971 23.125C36.9971 23.4291 37.057 23.7302 37.1733 24.0111C37.2897 24.292 37.4602 24.5472 37.6753 24.7623L47.6051 34.6875H20.8125Z" fill="black"/>
</svg>
