<svg width="74" height="74" viewBox="0 0 74 74" fill="none" xmlns="http://www.w3.org/2000/svg">
<path fill-rule="evenodd" clip-rule="evenodd" d="M4.625 9.25C4.625 8.02337 5.11227 6.84699 5.97963 5.97963C6.84698 5.11228 8.02338 4.625 9.25 4.625H64.75C65.9766 4.625 67.153 5.11228 68.0204 5.97963C68.8877 6.84699 69.375 8.02337 69.375 9.25V64.75C69.375 65.9766 68.8877 67.153 68.0204 68.0204C67.153 68.8877 65.9766 69.375 64.75 69.375H9.25C8.02338 69.375 6.84698 68.8877 5.97963 68.0204C5.11227 67.153 4.625 65.9766 4.625 64.75V9.25ZM74 9.25C74 6.79675 73.0254 4.44397 71.2907 2.70926C69.556 0.974551 67.2033 0 64.75 0L9.25 0C6.79675 0 4.44398 0.974551 2.70927 2.70926C0.974556 4.44397 0 6.79675 0 9.25V64.75C0 67.2033 0.974556 69.556 2.70927 71.2907C4.44398 73.0254 6.79675 74 9.25 74H64.75C67.2033 74 69.556 73.0254 71.2907 71.2907C73.0254 69.556 74 67.2033 74 64.75V9.25ZM53.1875 34.6875C53.8008 34.6875 54.389 34.9311 54.8227 35.3648C55.2564 35.7985 55.5 36.3867 55.5 37C55.5 37.6133 55.2564 38.2015 54.8227 38.6352C54.389 39.0689 53.8008 39.3125 53.1875 39.3125H26.3949L36.3247 49.2378C36.5398 49.4528 36.7103 49.708 36.8267 49.9889C36.943 50.2698 37.0029 50.5709 37.0029 50.875C37.0029 51.1791 36.943 51.4802 36.8267 51.7611C36.7103 52.042 36.5398 52.2972 36.3247 52.5122C36.1097 52.7273 35.8545 52.8978 35.5736 53.0142C35.2927 53.1305 34.9916 53.1904 34.6875 53.1904C34.3834 53.1904 34.0823 53.1305 33.8014 53.0142C33.5205 52.8978 33.2653 52.7273 33.0503 52.5122L19.1753 38.6372C18.9599 38.4224 18.789 38.1673 18.6725 37.8863C18.5559 37.6054 18.4959 37.3042 18.4959 37C18.4959 36.6958 18.5559 36.3946 18.6725 36.1137C18.789 35.8327 18.9599 35.5776 19.1753 35.3628L33.0503 21.4877C33.2653 21.2727 33.5205 21.1022 33.8014 20.9858C34.0823 20.8695 34.3834 20.8096 34.6875 20.8096C34.9916 20.8096 35.2927 20.8695 35.5736 20.9858C35.8545 21.1022 36.1097 21.2727 36.3247 21.4877C36.5398 21.7028 36.7103 21.958 36.8267 22.2389C36.943 22.5198 37.0029 22.8209 37.0029 23.125C37.0029 23.4291 36.943 23.7302 36.8267 24.0111C36.7103 24.292 36.5398 24.5472 36.3247 24.7623L26.3949 34.6875H53.1875Z" fill="black"/>
</svg>
