<svg width="74" height="72" viewBox="0 0 74 72" fill="none" xmlns="http://www.w3.org/2000/svg">
<path d="M53.1875 18V15.75C53.1875 11.5728 51.482 7.56677 48.4463 4.61307C45.4105 1.65937 41.2932 0 37 0C32.7068 0 28.5895 1.65937 25.5537 4.61307C22.518 7.56677 20.8125 11.5728 20.8125 15.75V18H4.625V63C4.625 65.3869 5.59955 67.6761 7.33426 69.364C9.06897 71.0518 11.4217 72 13.875 72H60.125C62.5783 72 64.931 71.0518 66.6657 69.364C68.4004 67.6761 69.375 65.3869 69.375 63V18H53.1875ZM37 4.5C40.0666 4.5 43.0075 5.68526 45.1759 7.79505C47.3443 9.90483 48.5625 12.7663 48.5625 15.75V18H25.4375V15.75C25.4375 12.7663 26.6557 9.90483 28.8241 7.79505C30.9925 5.68526 33.9334 4.5 37 4.5ZM37 35.9685C44.696 28.269 63.9406 41.742 37 59.0625C10.0594 41.7375 29.304 28.269 37 35.9685Z" fill="white"/>
</svg>
