<svg width="294" height="211" viewBox="0 0 294 211" fill="none" xmlns="http://www.w3.org/2000/svg">
<g clip-path="url(#clip0_49_274)">
<path d="M16.5 78.3198C17.37 78.3198 18.31 78.3698 19.33 78.4798C20.34 78.5898 21.32 78.7398 22.28 78.9298C23.23 79.1198 24.11 79.3098 24.9 79.4998C25.69 79.6898 26.31 79.8998 26.74 80.1098V89.1998H26C26 86.5798 25.1 84.5198 23.3 83.0198C21.5 81.5198 19.31 80.7698 16.75 80.7698C13.75 80.7698 11.32 81.7098 9.45996 83.5898C7.59996 85.4698 6.67996 87.6698 6.67996 90.1798C6.67996 91.2198 6.90996 92.4298 7.37996 93.8198C7.83996 95.2098 8.69996 96.5098 9.95996 97.7098L26.09 112.61C27.73 114.14 28.82 115.78 29.36 117.52C29.9 119.27 30.18 120.96 30.18 122.6C30.18 127.13 28.8 130.81 26.05 133.65C23.29 136.49 19.57 137.91 14.88 137.91C13.57 137.91 12.03 137.77 10.25 137.5C8.47996 137.23 6.75996 136.75 5.08996 136.07C3.41996 135.39 2.04996 134.5 0.959961 133.41C0.799961 132.54 0.709961 131.45 0.709961 130.13C0.709961 128.81 0.819961 127.44 1.03996 126C1.25996 124.55 1.55996 123.23 1.93996 122.03H2.67996C2.40996 124.81 2.75996 127.24 3.73996 129.32C4.71996 131.4 6.15996 132.96 8.03996 134.03C9.91996 135.09 12.06 135.57 14.47 135.46C17.47 135.3 20.05 134.25 22.21 132.31C24.37 130.37 25.44 127.77 25.44 124.49C25.44 122.91 25.17 121.47 24.62 120.19C24.07 118.91 23.28 117.8 22.25 116.87L6.52996 102.3C4.88996 100.77 3.74996 99.0898 3.08996 97.2598C2.43996 95.4298 2.10996 93.7298 2.10996 92.1398C2.10996 89.8498 2.64996 87.6398 3.74996 85.5098C4.83996 83.3798 6.45996 81.6498 8.61996 80.3098C10.78 78.9698 13.41 78.2998 16.52 78.2998L16.5 78.3198ZM26.73 79.1298V80.8498H20.51V79.1298H26.73Z" fill="#0C0B0B"/>
<path d="M16.5 78.3198C17.37 78.3198 18.31 78.3698 19.33 78.4798C20.34 78.5898 21.32 78.7398 22.28 78.9298C23.23 79.1198 24.11 79.3098 24.9 79.4998C25.69 79.6898 26.31 79.8998 26.74 80.1098V89.1998H26C26 86.5798 25.1 84.5198 23.3 83.0198C21.5 81.5198 19.31 80.7698 16.75 80.7698C13.75 80.7698 11.32 81.7098 9.45996 83.5898C7.59996 85.4698 6.67996 87.6698 6.67996 90.1798C6.67996 91.2198 6.90996 92.4298 7.37996 93.8198C7.83996 95.2098 8.69996 96.5098 9.95996 97.7098L26.09 112.61C27.73 114.14 28.82 115.78 29.36 117.52C29.9 119.27 30.18 120.96 30.18 122.6C30.18 127.13 28.8 130.81 26.05 133.65C23.29 136.49 19.57 137.91 14.88 137.91C13.57 137.91 12.03 137.77 10.25 137.5C8.47996 137.23 6.75996 136.75 5.08996 136.07C3.41996 135.39 2.04996 134.5 0.959961 133.41C0.799961 132.54 0.709961 131.45 0.709961 130.13C0.709961 128.81 0.819961 127.44 1.03996 126C1.25996 124.55 1.55996 123.23 1.93996 122.03H2.67996C2.40996 124.81 2.75996 127.24 3.73996 129.32C4.71996 131.4 6.15996 132.96 8.03996 134.03C9.91996 135.09 12.06 135.57 14.47 135.46C17.47 135.3 20.05 134.25 22.21 132.31C24.37 130.37 25.44 127.77 25.44 124.49C25.44 122.91 25.17 121.47 24.62 120.19C24.07 118.91 23.28 117.8 22.25 116.87L6.52996 102.3C4.88996 100.77 3.74996 99.0898 3.08996 97.2598C2.43996 95.4298 2.10996 93.7298 2.10996 92.1398C2.10996 89.8498 2.64996 87.6398 3.74996 85.5098C4.83996 83.3798 6.45996 81.6498 8.61996 80.3098C10.78 78.9698 13.41 78.2998 16.52 78.2998L16.5 78.3198ZM26.73 79.1298V80.8498H20.51V79.1298H26.73Z" stroke="#0C0B0B" stroke-width="1.43" stroke-miterlimit="10"/>
<path d="M45.3998 92.8098H45.2398C45.1898 91.5598 44.7198 90.5198 43.8498 89.6998C42.9798 88.8798 41.8598 88.4698 40.4898 88.4698H39.3398V87.6498H46.4598L45.3998 92.8098ZM45.3998 131.53L46.4598 136.77H39.3398V135.95H40.4898C41.8498 135.95 42.9698 135.51 43.8498 134.64C44.7298 133.77 45.1898 132.73 45.2398 131.53H45.3998ZM50.4798 87.6498V136.77H45.2398V87.6498H50.4798ZM72.4198 87.6498V90.1898H50.3198V87.6498H72.4198ZM68.6498 110.98V113.44H50.3098V110.98H68.6498ZM72.4998 134.23L72.3398 136.77H50.3198V134.23H72.5098H72.4998ZM77.0798 125.06L72.5798 136.77H60.1398L62.9198 134.23C65.6498 134.23 67.8398 133.83 69.5098 133.04C71.1798 132.25 72.5298 131.16 73.5598 129.76C74.5998 128.37 75.4998 126.8 76.2598 125.05H77.0798V125.06ZM72.4198 86.3398V88.4698L63.0898 87.6498C64.7798 87.6498 66.5798 87.4998 68.4898 87.1998C70.3998 86.8998 71.7098 86.6098 72.4198 86.3398ZM68.6498 106.48V111.15H64.3898V110.99C65.5398 110.99 66.3798 110.65 66.9298 109.97C67.4698 109.29 67.7498 108.48 67.7498 107.55V106.49H68.6498V106.48ZM68.6498 113.27V117.94H67.7498V116.88C67.7498 115.95 67.4798 115.15 66.9298 114.46C66.3798 113.78 65.5398 113.44 64.3898 113.44V113.28H68.6498V113.27ZM72.4198 89.9398V95.5898H71.5198V94.3598C71.5198 93.2098 71.1498 92.2299 70.4198 91.4099C69.6798 90.5899 68.6898 90.1798 67.4298 90.1798V89.9298H72.4198V89.9398Z" fill="#0C0B0B"/>
<path d="M45.3998 92.8098H45.2398C45.1898 91.5598 44.7198 90.5198 43.8498 89.6998C42.9798 88.8798 41.8598 88.4698 40.4898 88.4698H39.3398V87.6498H46.4598L45.3998 92.8098ZM45.3998 131.53L46.4598 136.77H39.3398V135.95H40.4898C41.8498 135.95 42.9698 135.51 43.8498 134.64C44.7298 133.77 45.1898 132.73 45.2398 131.53H45.3998ZM50.4798 87.6498V136.77H45.2398V87.6498H50.4798ZM72.4198 87.6498V90.1898H50.3198V87.6498H72.4198ZM68.6498 110.98V113.44H50.3098V110.98H68.6498ZM72.4998 134.23L72.3398 136.77H50.3198V134.23H72.5098H72.4998ZM77.0798 125.06L72.5798 136.77H60.1398L62.9198 134.23C65.6498 134.23 67.8398 133.83 69.5098 133.04C71.1798 132.25 72.5298 131.16 73.5598 129.76C74.5998 128.37 75.4998 126.8 76.2598 125.05H77.0798V125.06ZM72.4198 86.3398V88.4698L63.0898 87.6498C64.7798 87.6498 66.5798 87.4998 68.4898 87.1998C70.3998 86.8998 71.7098 86.6098 72.4198 86.3398ZM68.6498 106.48V111.15H64.3898V110.99C65.5398 110.99 66.3798 110.65 66.9298 109.97C67.4698 109.29 67.7498 108.48 67.7498 107.55V106.49H68.6498V106.48ZM68.6498 113.27V117.94H67.7498V116.88C67.7498 115.95 67.4798 115.15 66.9298 114.46C66.3798 113.78 65.5398 113.44 64.3898 113.44V113.28H68.6498V113.27ZM72.4198 89.9398V95.5898H71.5198V94.3598C71.5198 93.2098 71.1498 92.2299 70.4198 91.4099C69.6798 90.5899 68.6898 90.1798 67.4298 90.1798V89.9298H72.4198V89.9398Z" stroke="#0C0B0B" stroke-width="1.43" stroke-miterlimit="10"/>
<path d="M89.1997 92.8094H89.0397C88.9897 91.5594 88.5197 90.5194 87.6497 89.6994C86.7797 88.8794 85.6897 88.4694 84.3797 88.4694H83.2297V87.6494H90.1897L89.2097 92.8094H89.1997ZM89.1997 131.529L90.1797 136.769H83.2197V135.949H84.3697C85.6797 135.949 86.7697 135.509 87.6397 134.639C88.5097 133.769 88.9797 132.729 89.0297 131.529H89.1997ZM94.1897 87.6494V136.769H88.9497V87.6494H94.1897ZM93.9497 131.529H94.1997C94.2497 132.729 94.7197 133.769 95.5897 134.639C96.4597 135.509 97.5497 135.949 98.8697 135.949H99.9297L100.01 136.769H92.9697L93.9497 131.529ZM103.77 87.6494C106.33 87.6494 108.64 87.9494 110.69 88.5494C112.74 89.1494 114.48 90.0194 115.93 91.1694C117.38 92.3194 118.48 93.7094 119.25 95.3494C120.01 96.9894 120.4 98.8394 120.4 100.919C120.4 103.209 119.85 105.339 118.76 107.309C117.67 109.269 116.15 110.889 114.22 112.139C112.28 113.399 110.09 114.159 107.63 114.429C108.56 114.809 109.64 115.659 110.86 116.969C112.09 118.279 113.14 119.559 114.01 120.819C115.43 122.729 116.7 124.379 117.82 125.769C118.94 127.159 120.04 128.489 121.14 129.739C122.29 130.999 123.34 132.089 124.29 133.019C125.25 133.949 126.28 134.669 127.4 135.189C128.52 135.709 129.82 135.969 131.29 135.969V136.789H128.75C125.75 136.789 123.28 136.409 121.34 135.639C119.4 134.879 117.83 133.929 116.63 132.819C115.43 131.699 114.39 130.619 113.52 129.589C113.3 129.319 112.8 128.619 112.01 127.499C111.22 126.379 110.36 125.169 109.43 123.859C108.5 122.549 107.66 121.359 106.89 120.299C106.13 119.239 105.66 118.589 105.5 118.379C104.41 116.959 103.15 115.689 101.73 114.569C100.31 113.449 98.8097 112.889 97.2297 112.889V112.069C98.9797 112.119 100.53 112.119 101.9 112.069C103.43 112.019 104.96 111.889 106.48 111.699C108.01 111.509 109.44 110.919 110.78 109.939C112.12 108.959 113.17 107.319 113.93 105.029C114.15 104.429 114.31 103.719 114.42 102.899C114.53 102.079 114.56 101.239 114.5 100.359C114.45 98.8294 114.16 97.4694 113.64 96.2694C113.12 95.0694 112.38 94.0294 111.43 93.1594C110.47 92.2894 109.34 91.5994 108.03 91.1094C106.72 90.6194 105.25 90.3494 103.61 90.2894C101.04 90.1794 98.8097 90.1494 96.8997 90.2094C94.9897 90.2594 94.0297 90.2594 94.0297 90.2094C94.0297 90.1594 93.9597 89.9194 93.8297 89.5094C93.6897 89.0994 93.4897 88.4894 93.2197 87.6694H103.78V87.6494H103.77Z" fill="#0C0B0B"/>
<path d="M140.61 92.8098H140.45C140.39 91.5598 139.93 90.5198 139.06 89.6998C138.19 88.8798 137.07 88.4698 135.7 88.4698H134.55V87.6498H141.67L140.61 92.8098ZM140.61 131.53L141.67 136.77H134.55V135.95H135.7C137.06 135.95 138.18 135.51 139.06 134.64C139.94 133.77 140.4 132.73 140.45 131.53H140.61ZM145.69 87.6498V136.77H140.45V87.6498H145.69ZM167.63 87.6498V90.1898H145.53V87.6498H167.63ZM163.87 110.98V113.44H145.53V110.98H163.87ZM167.71 134.23L167.55 136.77H145.53V134.23H167.72H167.71ZM172.3 125.06L167.8 136.77H155.36L158.14 134.23C160.87 134.23 163.06 133.83 164.73 133.04C166.39 132.25 167.74 131.16 168.78 129.76C169.82 128.37 170.72 126.8 171.48 125.05H172.3V125.06ZM167.63 86.3398V88.4698L158.3 87.6498C159.99 87.6498 161.79 87.4998 163.7 87.1998C165.61 86.8998 166.92 86.6098 167.63 86.3398ZM163.87 106.48V111.15H159.61V110.99C160.76 110.99 161.6 110.65 162.15 109.97C162.69 109.29 162.97 108.48 162.97 107.55V106.49H163.87V106.48ZM163.87 113.27V117.94H162.97V116.88C162.97 115.95 162.7 115.15 162.15 114.46C161.6 113.78 160.76 113.44 159.61 113.44V113.28H163.87V113.27ZM167.63 89.9398V95.5898H166.73V94.3598C166.73 93.2098 166.36 92.2299 165.62 91.4099C164.88 90.5899 163.89 90.1798 162.63 90.1798V89.9298H167.63V89.9398Z" fill="#0C0B0B"/>
<path d="M183.76 131.69V136.77H177.62V135.95H179.01C180.26 135.95 181.33 135.54 182.2 134.72C183.07 133.9 183.51 132.89 183.51 131.69H183.76ZM183.59 86.4199L187.11 90.9999L187.19 136.77H183.51V96.6499C183.51 93.8699 183.26 90.4599 182.77 86.4199H183.59ZM183.59 86.4199L228.95 129.16L229.77 137.92L184.41 94.9399L183.59 86.4299V86.4199ZM187.2 131.69C187.2 132.89 187.65 133.9 188.55 134.72C189.45 135.54 190.5 135.95 191.7 135.95H193.09V136.77H186.95V131.69H187.2ZM226.17 92.7199C226.12 91.5199 225.65 90.5099 224.78 89.6899C223.91 88.8699 222.84 88.4599 221.59 88.4599H220.2V87.6399H226.34V92.7199H226.17ZM229.77 87.6499V127.44C229.77 129.19 229.82 130.87 229.93 132.48C230.04 134.09 230.23 135.91 230.5 137.92H229.76L226.16 133.58V87.6499H229.77ZM229.52 92.7199V87.6399H235.66V88.4599H234.27C233.07 88.4599 232.02 88.8699 231.12 89.6899C230.22 90.5099 229.77 91.5199 229.77 92.7199H229.52Z" fill="#0C0B0B"/>
<path d="M250.24 130.79C249.64 132.43 249.72 133.7 250.49 134.6C251.25 135.5 252.13 135.95 253.11 135.95H253.77V136.77H238.13V135.95H238.79C239.94 135.95 241.11 135.55 242.31 134.76C243.51 133.97 244.55 132.65 245.42 130.79H250.25H250.24ZM266.04 86.5L266.61 92.15L247.86 136.52H242.7L262.1 94.93C262.7 93.62 263.2 92.49 263.61 91.53C264.02 90.58 264.39 89.63 264.71 88.71C265.04 87.78 265.23 87.05 265.28 86.5H266.04ZM275.7 117.69V120.15H254V117.69H275.7ZM266.04 86.5L288.55 136.28H282.08L264.64 93.79L266.03 86.5H266.04ZM279.87 130.79H286.09C286.91 132.65 287.92 133.97 289.12 134.76C290.32 135.55 291.47 135.95 292.56 135.95H293.22V136.77H276.44V135.95H277.09C278.02 135.95 278.86 135.5 279.63 134.6C280.39 133.7 280.48 132.43 279.88 130.79H279.87Z" fill="#0C0B0B"/>
<path d="M89.1997 92.8094H89.0397C88.9897 91.5594 88.5197 90.5194 87.6497 89.6994C86.7797 88.8794 85.6897 88.4694 84.3797 88.4694H83.2297V87.6494H90.1897L89.2097 92.8094H89.1997ZM89.1997 131.529L90.1797 136.769H83.2197V135.949H84.3697C85.6797 135.949 86.7697 135.509 87.6397 134.639C88.5097 133.769 88.9797 132.729 89.0297 131.529H89.1997ZM94.1897 87.6494V136.769H88.9497V87.6494H94.1897ZM93.9497 131.529H94.1997C94.2497 132.729 94.7197 133.769 95.5897 134.639C96.4597 135.509 97.5497 135.949 98.8697 135.949H99.9297L100.01 136.769H92.9697L93.9497 131.529ZM103.77 87.6494C106.33 87.6494 108.64 87.9494 110.69 88.5494C112.74 89.1494 114.48 90.0194 115.93 91.1694C117.38 92.3194 118.48 93.7094 119.25 95.3494C120.01 96.9894 120.4 98.8394 120.4 100.919C120.4 103.209 119.85 105.339 118.76 107.309C117.67 109.269 116.15 110.889 114.22 112.139C112.28 113.399 110.09 114.159 107.63 114.429C108.56 114.809 109.64 115.659 110.86 116.969C112.09 118.279 113.14 119.559 114.01 120.819C115.43 122.729 116.7 124.379 117.82 125.769C118.94 127.159 120.04 128.489 121.14 129.739C122.29 130.999 123.34 132.089 124.29 133.019C125.25 133.949 126.28 134.669 127.4 135.189C128.52 135.709 129.82 135.969 131.29 135.969V136.789H128.75C125.75 136.789 123.28 136.409 121.34 135.639C119.4 134.879 117.83 133.929 116.63 132.819C115.43 131.699 114.39 130.619 113.52 129.589C113.3 129.319 112.8 128.619 112.01 127.499C111.22 126.379 110.36 125.169 109.43 123.859C108.5 122.549 107.66 121.359 106.89 120.299C106.13 119.239 105.66 118.589 105.5 118.379C104.41 116.959 103.15 115.689 101.73 114.569C100.31 113.449 98.8097 112.889 97.2297 112.889V112.069C98.9797 112.119 100.53 112.119 101.9 112.069C103.43 112.019 104.96 111.889 106.48 111.699C108.01 111.509 109.44 110.919 110.78 109.939C112.12 108.959 113.17 107.319 113.93 105.029C114.15 104.429 114.31 103.719 114.42 102.899C114.53 102.079 114.56 101.239 114.5 100.359C114.45 98.8294 114.16 97.4694 113.64 96.2694C113.12 95.0694 112.38 94.0294 111.43 93.1594C110.47 92.2894 109.34 91.5994 108.03 91.1094C106.72 90.6194 105.25 90.3494 103.61 90.2894C101.04 90.1794 98.8097 90.1494 96.8997 90.2094C94.9897 90.2594 94.0297 90.2594 94.0297 90.2094C94.0297 90.1594 93.9597 89.9194 93.8297 89.5094C93.6897 89.0994 93.4897 88.4894 93.2197 87.6694H103.78V87.6494H103.77Z" stroke="#0C0B0B" stroke-width="1.43" stroke-miterlimit="10"/>
<path d="M140.61 92.8098H140.45C140.39 91.5598 139.93 90.5198 139.06 89.6998C138.19 88.8798 137.07 88.4698 135.7 88.4698H134.55V87.6498H141.67L140.61 92.8098ZM140.61 131.53L141.67 136.77H134.55V135.95H135.7C137.06 135.95 138.18 135.51 139.06 134.64C139.94 133.77 140.4 132.73 140.45 131.53H140.61ZM145.69 87.6498V136.77H140.45V87.6498H145.69ZM167.63 87.6498V90.1898H145.53V87.6498H167.63ZM163.87 110.98V113.44H145.53V110.98H163.87ZM167.71 134.23L167.55 136.77H145.53V134.23H167.72H167.71ZM172.3 125.06L167.8 136.77H155.36L158.14 134.23C160.87 134.23 163.06 133.83 164.73 133.04C166.39 132.25 167.74 131.16 168.78 129.76C169.82 128.37 170.72 126.8 171.48 125.05H172.3V125.06ZM167.63 86.3398V88.4698L158.3 87.6498C159.99 87.6498 161.79 87.4998 163.7 87.1998C165.61 86.8998 166.92 86.6098 167.63 86.3398ZM163.87 106.48V111.15H159.61V110.99C160.76 110.99 161.6 110.65 162.15 109.97C162.69 109.29 162.97 108.48 162.97 107.55V106.49H163.87V106.48ZM163.87 113.27V117.94H162.97V116.88C162.97 115.95 162.7 115.15 162.15 114.46C161.6 113.78 160.76 113.44 159.61 113.44V113.28H163.87V113.27ZM167.63 89.9398V95.5898H166.73V94.3598C166.73 93.2098 166.36 92.2299 165.62 91.4099C164.88 90.5899 163.89 90.1798 162.63 90.1798V89.9298H167.63V89.9398Z" stroke="#0C0B0B" stroke-width="1.43" stroke-miterlimit="10"/>
<path d="M183.59 86.4199L187.11 90.9999L187.19 136.77H183.51V96.6499C183.51 93.8699 183.26 90.4599 182.77 86.4199H183.59ZM183.59 86.4199L228.95 129.16L229.77 137.92L184.41 94.9399L183.59 86.4299V86.4199ZM183.76 131.69V136.77H177.62V135.95H179.01C180.26 135.95 181.33 135.54 182.2 134.72C183.07 133.9 183.51 132.89 183.51 131.69H183.76ZM187.2 131.69C187.2 132.89 187.65 133.9 188.55 134.72C189.45 135.54 190.5 135.95 191.7 135.95H193.09V136.77H186.95V131.69H187.2ZM226.17 92.7199C226.12 91.5199 225.65 90.5099 224.78 89.6899C223.91 88.8699 222.84 88.4599 221.59 88.4599H220.2V87.6399H226.34V92.7199H226.17ZM229.77 87.6499V127.44C229.77 129.19 229.82 130.87 229.93 132.48C230.04 134.09 230.23 135.91 230.5 137.92H229.76L226.16 133.58V87.6499H229.77ZM229.52 92.7199V87.6399H235.66V88.4599H234.27C233.07 88.4599 232.02 88.8699 231.12 89.6899C230.22 90.5099 229.77 91.5199 229.77 92.7199H229.52Z" stroke="#0C0B0B" stroke-width="1.43" stroke-miterlimit="10"/>
<path d="M266.04 86.5L266.61 92.15L247.86 136.52H242.7L262.1 94.93C262.7 93.62 263.2 92.49 263.61 91.53C264.02 90.58 264.39 89.63 264.71 88.71C265.04 87.78 265.23 87.05 265.28 86.5H266.04ZM266.04 86.5L288.55 136.28H282.08L264.64 93.79L266.03 86.5H266.04ZM250.24 130.79C249.64 132.43 249.72 133.7 250.49 134.6C251.25 135.5 252.13 135.95 253.11 135.95H253.77V136.77H238.13V135.95H238.79C239.94 135.95 241.11 135.55 242.31 134.76C243.51 133.97 244.55 132.65 245.42 130.79H250.25H250.24ZM275.7 117.69V120.15H254V117.69H275.7ZM279.87 130.79H286.09C286.91 132.65 287.92 133.97 289.12 134.76C290.32 135.55 291.47 135.95 292.56 135.95H293.22V136.77H276.44V135.95H277.09C278.02 135.95 278.86 135.5 279.63 134.6C280.39 133.7 280.48 132.43 279.88 130.79H279.87Z" stroke="#0C0B0B" stroke-width="1.43" stroke-miterlimit="10"/>
<path d="M178.369 74.1802C179.139 74.1802 179.139 72.9902 178.369 72.9902C177.599 72.9902 177.599 74.1802 178.369 74.1802Z" fill="#0C0B0B"/>
<path d="M178.369 74.3794C179.139 74.3794 179.139 73.1895 178.369 73.1895C177.599 73.1895 177.599 74.3794 178.369 74.3794Z" fill="#0C0B0B"/>
<path d="M170.831 46.8691C170.831 46.8691 170.851 46.9091 170.881 46.9091C170.891 46.8691 170.841 46.8291 170.811 46.8491C170.811 46.8791 170.831 46.8991 170.861 46.8991C170.881 46.8791 170.881 46.8491 170.861 46.8291" stroke="#0C0B0B" stroke-width="0.07" stroke-miterlimit="10"/>
<path d="M95.7402 35.4994L118.15 67.7694L137.87 65.9694L169.24 67.7694L191.65 34.5994L175.51 41.7694L171.93 20.2594L154.9 39.9794L145.93 10.3994L130.7 41.7694L126.21 35.4994L116.35 22.0494L112.77 43.5694L95.7402 35.4994Z" fill="#0C0B0B" stroke="#0C0B0B" stroke-width="0.9" stroke-miterlimit="10"/>
<path d="M143.713 57.1227L138.007 62.8291L143.713 68.5355L149.42 62.8291L143.713 57.1227Z" fill="white" stroke="white" stroke-width="0.9" stroke-miterlimit="10"/>
<path d="M91.7003 35.0599C93.6831 35.0599 95.2904 33.4526 95.2904 31.4699C95.2904 29.4872 93.6831 27.8799 91.7003 27.8799C89.7176 27.8799 88.1104 29.4872 88.1104 31.4699C88.1104 33.4526 89.7176 35.0599 91.7003 35.0599Z" fill="#0C0B0B" stroke="#0C0B0B" stroke-width="0.18" stroke-miterlimit="10"/>
<path d="M114.111 19.8196C116.093 19.8196 117.701 18.2123 117.701 16.2296C117.701 14.2469 116.093 12.6396 114.111 12.6396C112.128 12.6396 110.521 14.2469 110.521 16.2296C110.521 18.2123 112.128 19.8196 114.111 19.8196Z" fill="#0C0B0B" stroke="#0C0B0B" stroke-width="0.18" stroke-miterlimit="10"/>
<path d="M145.49 7.26984C147.473 7.26984 149.08 5.66255 149.08 3.67984C149.08 1.69714 147.473 0.0898438 145.49 0.0898438C143.508 0.0898438 141.9 1.69714 141.9 3.67984C141.9 5.66255 143.508 7.26984 145.49 7.26984Z" fill="#0C0B0B" stroke="#0C0B0B" stroke-width="0.18" stroke-miterlimit="10"/>
<path d="M174.17 18.0198C176.153 18.0198 177.76 16.4125 177.76 14.4298C177.76 12.4471 176.153 10.8398 174.17 10.8398C172.187 10.8398 170.58 12.4471 170.58 14.4298C170.58 16.4125 172.187 18.0198 174.17 18.0198Z" fill="#0C0B0B" stroke="#0C0B0B" stroke-width="0.18" stroke-miterlimit="10"/>
<path d="M197.47 27.8802C199.453 27.8802 201.06 26.2729 201.06 24.2902C201.06 22.3075 199.453 20.7002 197.47 20.7002C195.487 20.7002 193.88 22.3075 193.88 24.2902C193.88 26.2729 195.487 27.8802 197.47 27.8802Z" fill="#0C0B0B" stroke="#0C0B0B" stroke-width="0.18" stroke-miterlimit="10"/>
<path d="M177.78 208.629V209.709C177.78 209.709 177.78 209.789 177.76 209.829C177.75 209.869 177.72 209.899 177.7 209.929C177.68 209.959 177.64 209.979 177.61 209.999C177.58 210.019 177.54 210.019 177.5 210.019C177.5 210.019 177.56 209.969 177.59 209.939C177.62 209.909 177.64 209.869 177.65 209.829C177.66 209.789 177.67 209.749 177.67 209.699V208.629H177.78ZM177.69 208.739C177.69 208.739 177.68 208.689 177.66 208.669C177.64 208.649 177.62 208.639 177.59 208.639H177.57V208.619H177.69V208.729V208.739ZM177.78 208.739V208.629H177.9V208.649H177.88C177.88 208.649 177.83 208.649 177.81 208.679C177.79 208.699 177.78 208.719 177.78 208.749V208.739Z" fill="#0C0B0B"/>
<path d="M178.63 208.609C178.74 208.609 178.84 208.629 178.92 208.679C179 208.729 179.07 208.789 179.12 208.879C179.17 208.969 179.19 209.059 179.19 209.169C179.19 209.279 179.17 209.379 179.12 209.459C179.07 209.539 179.01 209.609 178.92 209.659C178.83 209.709 178.74 209.729 178.63 209.729C178.52 209.729 178.42 209.709 178.34 209.659C178.26 209.609 178.19 209.549 178.14 209.459C178.09 209.379 178.07 209.279 178.07 209.169C178.07 209.059 178.09 208.959 178.14 208.879C178.19 208.799 178.25 208.729 178.34 208.679C178.43 208.629 178.52 208.609 178.63 208.609ZM178.63 209.689C178.72 209.689 178.79 209.669 178.86 209.629C178.93 209.589 178.98 209.529 179.01 209.449C179.04 209.369 179.06 209.279 179.06 209.179C179.06 209.079 179.04 208.989 179.01 208.909C178.98 208.829 178.92 208.769 178.86 208.729C178.79 208.689 178.72 208.659 178.63 208.659C178.54 208.659 178.47 208.679 178.4 208.729C178.33 208.769 178.28 208.829 178.25 208.909C178.22 208.989 178.2 209.079 178.2 209.179C178.2 209.279 178.22 209.369 178.25 209.449C178.28 209.529 178.34 209.589 178.4 209.629C178.47 209.669 178.54 209.689 178.63 209.689Z" fill="#0C0B0B"/>
<path d="M94.5502 153.48V179.79C94.5502 180.84 94.3702 181.83 94.0202 182.74C93.6702 183.65 93.1802 184.45 92.5502 185.13C91.9202 185.81 91.2002 186.34 90.3702 186.73C89.5402 187.12 88.6502 187.31 87.7002 187.31V186.97C88.5302 186.67 89.2702 186.15 89.9402 185.41C90.6002 184.67 91.1302 183.8 91.5202 182.8C91.9102 181.8 92.1002 180.76 92.1002 179.68V153.49H94.5502V153.48ZM92.2202 156.23H92.1102C92.0802 155.58 91.8402 155.02 91.3802 154.56C90.9202 154.1 90.3602 153.86 89.7102 153.86H89.2202V153.48H92.2302V156.22H92.2202V156.23ZM94.4402 156.23V153.49H97.4502V153.87H96.9602C96.3102 153.87 95.7502 154.1 95.2902 154.57C94.8302 155.03 94.5802 155.59 94.5602 156.24H94.4402V156.23Z" fill="#0C0B0B"/>
<path d="M94.5502 153.48V179.79C94.5502 180.84 94.3702 181.83 94.0202 182.74C93.6702 183.65 93.1802 184.45 92.5502 185.13C91.9202 185.81 91.2002 186.34 90.3702 186.73C89.5402 187.12 88.6502 187.31 87.7002 187.31V186.97C88.5302 186.67 89.2702 186.15 89.9402 185.41C90.6002 184.67 91.1302 183.8 91.5202 182.8C91.9102 181.8 92.1002 180.76 92.1002 179.68V153.49H94.5502V153.48ZM92.2202 156.23H92.1102C92.0802 155.58 91.8402 155.02 91.3802 154.56C90.9202 154.1 90.3602 153.86 89.7102 153.86H89.2202V153.48H92.2302V156.22H92.2202V156.23ZM94.4402 156.23V153.49H97.4502V153.87H96.9602C96.3102 153.87 95.7502 154.1 95.2902 154.57C94.8302 155.03 94.5802 155.59 94.5602 156.24H94.4402V156.23Z" stroke="#0C0B0B" stroke-width="1.15" stroke-miterlimit="10"/>
<path d="M119.011 152.96C121.691 152.96 124.051 153.53 126.081 154.67C128.111 155.81 129.691 157.41 130.831 159.46C131.971 161.51 132.541 163.91 132.541 166.64C132.541 169.37 131.971 171.76 130.831 173.82C129.691 175.87 128.111 177.47 126.081 178.61C124.051 179.75 121.701 180.32 119.011 180.32C116.321 180.32 114.011 179.75 111.981 178.61C109.951 177.47 108.371 175.87 107.231 173.82C106.091 171.77 105.521 169.37 105.521 166.64C105.521 163.91 106.091 161.52 107.231 159.46C108.371 157.41 109.951 155.81 111.981 154.67C114.011 153.53 116.351 152.96 119.011 152.96ZM119.011 179.19C121.141 179.19 123.001 178.66 124.591 177.61C126.181 176.56 127.421 175.09 128.311 173.21C129.201 171.33 129.641 169.14 129.641 166.63C129.641 164.12 129.201 161.93 128.311 160.05C127.421 158.17 126.181 156.71 124.591 155.65C123.001 154.6 121.141 154.07 119.011 154.07C116.881 154.07 115.061 154.6 113.471 155.65C111.881 156.7 110.641 158.17 109.751 160.05C108.861 161.93 108.421 164.12 108.421 166.63C108.421 169.14 108.861 171.33 109.751 173.21C110.641 175.09 111.881 176.55 113.471 177.61C115.061 178.66 116.911 179.19 119.011 179.19Z" fill="#0C0B0B"/>
<path d="M119.011 152.96C121.691 152.96 124.051 153.53 126.081 154.67C128.111 155.81 129.691 157.41 130.831 159.46C131.971 161.51 132.541 163.91 132.541 166.64C132.541 169.37 131.971 171.76 130.831 173.82C129.691 175.87 128.111 177.47 126.081 178.61C124.051 179.75 121.701 180.32 119.011 180.32C116.321 180.32 114.011 179.75 111.981 178.61C109.951 177.47 108.371 175.87 107.231 173.82C106.091 171.77 105.521 169.37 105.521 166.64C105.521 163.91 106.091 161.52 107.231 159.46C108.371 157.41 109.951 155.81 111.981 154.67C114.011 153.53 116.351 152.96 119.011 152.96ZM119.011 179.19C121.141 179.19 123.001 178.66 124.591 177.61C126.181 176.56 127.421 175.09 128.311 173.21C129.201 171.33 129.641 169.14 129.641 166.63C129.641 164.12 129.201 161.93 128.311 160.05C127.421 158.17 126.181 156.71 124.591 155.65C123.001 154.6 121.141 154.07 119.011 154.07C116.881 154.07 115.061 154.6 113.471 155.65C111.881 156.7 110.641 158.17 109.751 160.05C108.861 161.93 108.421 164.12 108.421 166.63C108.421 169.14 108.861 171.33 109.751 173.21C110.641 175.09 111.881 176.55 113.471 177.61C115.061 178.66 116.911 179.19 119.011 179.19Z" stroke="#0C0B0B" stroke-width="1.15" stroke-miterlimit="10"/>
<path d="M142.651 156.23H142.541C142.511 155.58 142.271 155.02 141.811 154.56C141.351 154.1 140.791 153.86 140.141 153.86H139.651V153.48H142.661V156.22H142.651V156.23ZM142.651 177.05V179.79H139.641V179.41H140.131C140.781 179.41 141.341 179.18 141.801 178.71C142.261 178.25 142.511 177.69 142.531 177.04H142.651V177.05ZM144.981 153.48V179.79H142.541V153.48H144.981ZM144.871 156.23V153.49H147.881V153.87H147.391C146.741 153.87 146.181 154.1 145.721 154.57C145.261 155.03 145.011 155.59 144.991 156.24H144.871V156.23ZM144.871 177.05H144.981C145.001 177.7 145.251 178.26 145.711 178.72C146.171 179.18 146.731 179.42 147.381 179.42H147.871V179.8H144.861V177.06H144.871V177.05Z" fill="#0C0B0B"/>
<path d="M159.261 177.05C159.081 177.55 159.061 177.98 159.181 178.33C159.301 178.68 159.511 178.95 159.801 179.14C160.091 179.33 160.381 179.42 160.681 179.42H161.021V179.8H153.471V179.42H153.811C154.391 179.42 154.981 179.24 155.601 178.88C156.211 178.52 156.721 177.91 157.121 177.06H159.261V177.05ZM167.341 152.96L167.681 155.59L158.251 179.68H156.001L165.621 156.83C165.901 156.2 166.131 155.66 166.321 155.21C166.511 154.76 166.671 154.32 166.811 153.89C166.951 153.46 167.021 153.15 167.021 152.95H167.361H167.341V152.96ZM172.641 169.53V170.66H160.881V169.53H172.641ZM167.341 152.96L178.461 179.57H175.271L166.591 156.53L167.341 152.96ZM174.331 177.05H177.411C177.791 177.9 178.291 178.51 178.911 178.87C179.541 179.23 180.141 179.41 180.711 179.41H181.011V179.79H172.551V179.41H172.891C173.371 179.41 173.791 179.2 174.171 178.79C174.551 178.38 174.601 177.79 174.321 177.04L174.331 177.05Z" fill="#0C0B0B"/>
<path d="M193.801 152.96C194.201 152.96 194.631 152.99 195.101 153.04C195.561 153.09 196.011 153.16 196.451 153.25C196.891 153.34 197.291 153.42 197.651 153.51C198.011 153.6 198.291 153.69 198.501 153.79V157.96H198.161C198.161 156.76 197.751 155.81 196.921 155.12C196.091 154.43 195.091 154.09 193.911 154.09C192.531 154.09 191.421 154.52 190.571 155.39C189.721 156.25 189.291 157.26 189.291 158.42C189.291 158.9 189.401 159.45 189.611 160.09C189.821 160.73 190.221 161.32 190.791 161.88L198.191 168.72C198.941 169.42 199.441 170.17 199.691 170.97C199.941 171.77 200.071 172.55 200.071 173.3C200.071 175.38 199.441 177.07 198.171 178.37C196.901 179.67 195.191 180.32 193.041 180.32C192.441 180.32 191.731 180.26 190.921 180.13C190.111 180.01 189.321 179.79 188.551 179.47C187.781 179.15 187.151 178.75 186.651 178.25C186.571 177.85 186.541 177.35 186.541 176.75C186.541 176.15 186.591 175.52 186.691 174.85C186.791 174.19 186.931 173.58 187.101 173.03H187.441C187.311 174.31 187.481 175.42 187.931 176.37C188.381 177.32 189.041 178.04 189.901 178.53C190.761 179.02 191.751 179.24 192.851 179.19C194.231 179.11 195.411 178.63 196.401 177.74C197.391 176.85 197.881 175.65 197.881 174.15C197.881 173.42 197.751 172.77 197.501 172.18C197.251 171.59 196.891 171.08 196.411 170.66L189.191 163.97C188.441 163.27 187.911 162.5 187.611 161.66C187.311 160.82 187.161 160.04 187.161 159.31C187.161 158.26 187.411 157.24 187.911 156.27C188.411 155.29 189.161 154.5 190.151 153.88C191.141 153.27 192.351 152.96 193.781 152.96H193.801ZM198.491 153.33V154.12H195.631V153.33H198.491Z" fill="#0C0B0B"/>
<path d="M142.651 156.23H142.541C142.511 155.58 142.271 155.02 141.811 154.56C141.351 154.1 140.791 153.86 140.141 153.86H139.651V153.48H142.661V156.22H142.651V156.23ZM142.651 177.05V179.79H139.641V179.41H140.131C140.781 179.41 141.341 179.18 141.801 178.71C142.261 178.25 142.511 177.69 142.531 177.04H142.651V177.05ZM144.981 153.48V179.79H142.541V153.48H144.981ZM144.871 156.23V153.49H147.881V153.87H147.391C146.741 153.87 146.181 154.1 145.721 154.57C145.261 155.03 145.011 155.59 144.991 156.24H144.871V156.23ZM144.871 177.05H144.981C145.001 177.7 145.251 178.26 145.711 178.72C146.171 179.18 146.731 179.42 147.381 179.42H147.871V179.8H144.861V177.06H144.871V177.05Z" stroke="#0C0B0B" stroke-width="1.15" stroke-miterlimit="10"/>
<path d="M167.341 152.96L167.681 155.59L158.251 179.68H156.001L165.621 156.83C165.901 156.2 166.131 155.66 166.321 155.21C166.511 154.76 166.671 154.32 166.811 153.89C166.951 153.46 167.021 153.15 167.021 152.95H167.361H167.341V152.96ZM167.341 152.96L178.461 179.57H175.271L166.591 156.53L167.341 152.96ZM159.261 177.05C159.081 177.55 159.061 177.98 159.181 178.33C159.301 178.68 159.511 178.95 159.801 179.14C160.091 179.33 160.381 179.42 160.681 179.42H161.021V179.8H153.471V179.42H153.811C154.391 179.42 154.981 179.24 155.601 178.88C156.211 178.52 156.721 177.91 157.121 177.06H159.261V177.05ZM172.641 169.53V170.66H160.881V169.53H172.641ZM174.331 177.05H177.411C177.791 177.9 178.291 178.51 178.911 178.87C179.541 179.23 180.141 179.41 180.711 179.41H181.011V179.79H172.551V179.41H172.891C173.371 179.41 173.791 179.2 174.171 178.79C174.551 178.38 174.601 177.79 174.321 177.04L174.331 177.05Z" stroke="#0C0B0B" stroke-width="1.15" stroke-miterlimit="10"/>
<path d="M193.801 152.96C194.201 152.96 194.631 152.99 195.101 153.04C195.561 153.09 196.011 153.16 196.451 153.25C196.891 153.34 197.291 153.42 197.651 153.51C198.011 153.6 198.291 153.69 198.501 153.79V157.96H198.161C198.161 156.76 197.751 155.81 196.921 155.12C196.091 154.43 195.091 154.09 193.911 154.09C192.531 154.09 191.421 154.52 190.571 155.39C189.721 156.25 189.291 157.26 189.291 158.42C189.291 158.9 189.401 159.45 189.611 160.09C189.821 160.73 190.221 161.32 190.791 161.88L198.191 168.72C198.941 169.42 199.441 170.17 199.691 170.97C199.941 171.77 200.071 172.55 200.071 173.3C200.071 175.38 199.441 177.07 198.171 178.37C196.901 179.67 195.191 180.32 193.041 180.32C192.441 180.32 191.731 180.26 190.921 180.13C190.111 180.01 189.321 179.79 188.551 179.47C187.781 179.15 187.151 178.75 186.651 178.25C186.571 177.85 186.541 177.35 186.541 176.75C186.541 176.15 186.591 175.52 186.691 174.85C186.791 174.19 186.931 173.58 187.101 173.03H187.441C187.311 174.31 187.481 175.42 187.931 176.37C188.381 177.32 189.041 178.04 189.901 178.53C190.761 179.02 191.751 179.24 192.851 179.19C194.231 179.11 195.411 178.63 196.401 177.74C197.391 176.85 197.881 175.65 197.881 174.15C197.881 173.42 197.751 172.77 197.501 172.18C197.251 171.59 196.891 171.08 196.411 170.66L189.191 163.97C188.441 163.27 187.911 162.5 187.611 161.66C187.311 160.82 187.161 160.04 187.161 159.31C187.161 158.26 187.411 157.24 187.911 156.27C188.411 155.29 189.161 154.5 190.151 153.88C191.141 153.27 192.351 152.96 193.781 152.96H193.801ZM198.491 153.33V154.12H195.631V153.33H198.491Z" stroke="#0C0B0B" stroke-width="1.15" stroke-miterlimit="10"/>
</g>
<defs>
<clipPath id="clip0_49_274">
<rect width="293.94" height="210.02" fill="white"/>
</clipPath>
</defs>
</svg>
