<svg width="294" height="211" viewBox="0 0 294 211" fill="none" xmlns="http://www.w3.org/2000/svg">
<g clip-path="url(#clip0_46_102)">
<path d="M16.5009 78.3198C17.3709 78.3198 18.3109 78.3698 19.3309 78.4798C20.3409 78.5898 21.3209 78.7398 22.2809 78.9298C23.2309 79.1198 24.1109 79.3098 24.9009 79.4998C25.6909 79.6898 26.3109 79.8998 26.7409 80.1098V89.1998H26.0009C26.0009 86.5798 25.1009 84.5198 23.3009 83.0198C21.5009 81.5198 19.3109 80.7698 16.7509 80.7698C13.7509 80.7698 11.3209 81.7098 9.46094 83.5898C7.60094 85.4698 6.68094 87.6698 6.68094 90.1798C6.68094 91.2198 6.91094 92.4298 7.38094 93.8198C7.84094 95.2098 8.70094 96.5098 9.96094 97.7098L26.0909 112.61C27.7309 114.14 28.8209 115.78 29.3609 117.52C29.9009 119.27 30.1809 120.96 30.1809 122.6C30.1809 127.13 28.8009 130.81 26.0509 133.65C23.2909 136.49 19.5709 137.91 14.8809 137.91C13.5709 137.91 12.0309 137.77 10.2509 137.5C8.48094 137.23 6.76094 136.75 5.09094 136.07C3.42094 135.39 2.05094 134.5 0.960938 133.41C0.800938 132.54 0.710938 131.45 0.710938 130.13C0.710938 128.81 0.820937 127.44 1.04094 126C1.26094 124.55 1.56094 123.23 1.94094 122.03H2.68094C2.41094 124.81 2.76094 127.24 3.74094 129.32C4.72094 131.4 6.16094 132.96 8.04094 134.03C9.92094 135.09 12.0609 135.57 14.4709 135.46C17.4709 135.3 20.0509 134.25 22.2109 132.31C24.3709 130.37 25.4409 127.77 25.4409 124.49C25.4409 122.91 25.1709 121.47 24.6209 120.19C24.0709 118.91 23.2809 117.8 22.2509 116.87L6.53094 102.3C4.89094 100.77 3.75094 99.0898 3.09094 97.2598C2.44094 95.4298 2.11094 93.7298 2.11094 92.1398C2.11094 89.8498 2.65094 87.6398 3.75094 85.5098C4.84094 83.3798 6.46094 81.6498 8.62094 80.3098C10.7809 78.9698 13.4109 78.2998 16.5209 78.2998L16.5009 78.3198ZM26.7309 79.1298V80.8498H20.5109V79.1298H26.7309Z" fill="white"/>
<path d="M16.5009 78.3198C17.3709 78.3198 18.3109 78.3698 19.3309 78.4798C20.3409 78.5898 21.3209 78.7398 22.2809 78.9298C23.2309 79.1198 24.1109 79.3098 24.9009 79.4998C25.6909 79.6898 26.3109 79.8998 26.7409 80.1098V89.1998H26.0009C26.0009 86.5798 25.1009 84.5198 23.3009 83.0198C21.5009 81.5198 19.3109 80.7698 16.7509 80.7698C13.7509 80.7698 11.3209 81.7098 9.46094 83.5898C7.60094 85.4698 6.68094 87.6698 6.68094 90.1798C6.68094 91.2198 6.91094 92.4298 7.38094 93.8198C7.84094 95.2098 8.70094 96.5098 9.96094 97.7098L26.0909 112.61C27.7309 114.14 28.8209 115.78 29.3609 117.52C29.9009 119.27 30.1809 120.96 30.1809 122.6C30.1809 127.13 28.8009 130.81 26.0509 133.65C23.2909 136.49 19.5709 137.91 14.8809 137.91C13.5709 137.91 12.0309 137.77 10.2509 137.5C8.48094 137.23 6.76094 136.75 5.09094 136.07C3.42094 135.39 2.05094 134.5 0.960938 133.41C0.800938 132.54 0.710938 131.45 0.710938 130.13C0.710938 128.81 0.820937 127.44 1.04094 126C1.26094 124.55 1.56094 123.23 1.94094 122.03H2.68094C2.41094 124.81 2.76094 127.24 3.74094 129.32C4.72094 131.4 6.16094 132.96 8.04094 134.03C9.92094 135.09 12.0609 135.57 14.4709 135.46C17.4709 135.3 20.0509 134.25 22.2109 132.31C24.3709 130.37 25.4409 127.77 25.4409 124.49C25.4409 122.91 25.1709 121.47 24.6209 120.19C24.0709 118.91 23.2809 117.8 22.2509 116.87L6.53094 102.3C4.89094 100.77 3.75094 99.0898 3.09094 97.2598C2.44094 95.4298 2.11094 93.7298 2.11094 92.1398C2.11094 89.8498 2.65094 87.6398 3.75094 85.5098C4.84094 83.3798 6.46094 81.6498 8.62094 80.3098C10.7809 78.9698 13.4109 78.2998 16.5209 78.2998L16.5009 78.3198ZM26.7309 79.1298V80.8498H20.5109V79.1298H26.7309Z" stroke="white" stroke-width="1.43" stroke-miterlimit="10"/>
<path d="M45.4018 92.8098H45.2418C45.1918 91.5598 44.7218 90.5198 43.8518 89.6998C42.9818 88.8798 41.8618 88.4698 40.4918 88.4698H39.3418V87.6498H46.4618L45.4018 92.8098ZM45.4018 131.53L46.4618 136.77H39.3418V135.95H40.4918C41.8518 135.95 42.9718 135.51 43.8518 134.64C44.7318 133.77 45.1918 132.73 45.2418 131.53H45.4018ZM50.4818 87.6498V136.77H45.2418V87.6498H50.4818ZM72.4218 87.6498V90.1898H50.3218V87.6498H72.4218ZM68.6518 110.98V113.44H50.3118V110.98H68.6518ZM72.5018 134.23L72.3418 136.77H50.3218V134.23H72.5118H72.5018ZM77.0818 125.06L72.5818 136.77H60.1418L62.9218 134.23C65.6518 134.23 67.8418 133.83 69.5118 133.04C71.1818 132.25 72.5318 131.16 73.5618 129.76C74.6018 128.37 75.5018 126.8 76.2618 125.05H77.0818V125.06ZM72.4218 86.3398V88.4698L63.0918 87.6498C64.7818 87.6498 66.5818 87.4998 68.4918 87.1998C70.4018 86.8998 71.7118 86.6098 72.4218 86.3398ZM68.6518 106.48V111.15H64.3918V110.99C65.5418 110.99 66.3818 110.65 66.9318 109.97C67.4718 109.29 67.7518 108.48 67.7518 107.55V106.49H68.6518V106.48ZM68.6518 113.27V117.94H67.7518V116.88C67.7518 115.95 67.4818 115.15 66.9318 114.46C66.3818 113.78 65.5418 113.44 64.3918 113.44V113.28H68.6518V113.27ZM72.4218 89.9398V95.5898H71.5218V94.3598C71.5218 93.2098 71.1518 92.2299 70.4218 91.4099C69.6818 90.5899 68.6918 90.1798 67.4318 90.1798V89.9298H72.4218V89.9398Z" fill="white"/>
<path d="M45.4018 92.8098H45.2418C45.1918 91.5598 44.7218 90.5198 43.8518 89.6998C42.9818 88.8798 41.8618 88.4698 40.4918 88.4698H39.3418V87.6498H46.4618L45.4018 92.8098ZM45.4018 131.53L46.4618 136.77H39.3418V135.95H40.4918C41.8518 135.95 42.9718 135.51 43.8518 134.64C44.7318 133.77 45.1918 132.73 45.2418 131.53H45.4018ZM50.4818 87.6498V136.77H45.2418V87.6498H50.4818ZM72.4218 87.6498V90.1898H50.3218V87.6498H72.4218ZM68.6518 110.98V113.44H50.3118V110.98H68.6518ZM72.5018 134.23L72.3418 136.77H50.3218V134.23H72.5118H72.5018ZM77.0818 125.06L72.5818 136.77H60.1418L62.9218 134.23C65.6518 134.23 67.8418 133.83 69.5118 133.04C71.1818 132.25 72.5318 131.16 73.5618 129.76C74.6018 128.37 75.5018 126.8 76.2618 125.05H77.0818V125.06ZM72.4218 86.3398V88.4698L63.0918 87.6498C64.7818 87.6498 66.5818 87.4998 68.4918 87.1998C70.4018 86.8998 71.7118 86.6098 72.4218 86.3398ZM68.6518 106.48V111.15H64.3918V110.99C65.5418 110.99 66.3818 110.65 66.9318 109.97C67.4718 109.29 67.7518 108.48 67.7518 107.55V106.49H68.6518V106.48ZM68.6518 113.27V117.94H67.7518V116.88C67.7518 115.95 67.4818 115.15 66.9318 114.46C66.3818 113.78 65.5418 113.44 64.3918 113.44V113.28H68.6518V113.27ZM72.4218 89.9398V95.5898H71.5218V94.3598C71.5218 93.2098 71.1518 92.2299 70.4218 91.4099C69.6818 90.5899 68.6918 90.1798 67.4318 90.1798V89.9298H72.4218V89.9398Z" stroke="white" stroke-width="1.43" stroke-miterlimit="10"/>
<path d="M89.2007 92.8094H89.0407C88.9907 91.5594 88.5207 90.5194 87.6507 89.6994C86.7807 88.8794 85.6907 88.4694 84.3807 88.4694H83.2307V87.6494H90.1907L89.2107 92.8094H89.2007ZM89.2007 131.529L90.1807 136.769H83.2207V135.949H84.3707C85.6807 135.949 86.7707 135.509 87.6407 134.639C88.5107 133.769 88.9807 132.729 89.0307 131.529H89.2007ZM94.1907 87.6494V136.769H88.9507V87.6494H94.1907ZM93.9507 131.529H94.2007C94.2507 132.729 94.7207 133.769 95.5907 134.639C96.4607 135.509 97.5507 135.949 98.8707 135.949H99.9307L100.011 136.769H92.9707L93.9507 131.529ZM103.771 87.6494C106.331 87.6494 108.641 87.9494 110.691 88.5494C112.741 89.1494 114.481 90.0194 115.931 91.1694C117.381 92.3194 118.481 93.7094 119.251 95.3494C120.011 96.9894 120.401 98.8394 120.401 100.919C120.401 103.209 119.851 105.339 118.761 107.309C117.671 109.269 116.151 110.889 114.221 112.139C112.281 113.399 110.091 114.159 107.631 114.429C108.561 114.809 109.641 115.659 110.861 116.969C112.091 118.279 113.141 119.559 114.011 120.819C115.431 122.729 116.701 124.379 117.821 125.769C118.941 127.159 120.041 128.489 121.141 129.739C122.291 130.999 123.341 132.089 124.291 133.019C125.251 133.949 126.281 134.669 127.401 135.189C128.521 135.709 129.821 135.969 131.291 135.969V136.789H128.751C125.751 136.789 123.281 136.409 121.341 135.639C119.401 134.879 117.831 133.929 116.631 132.819C115.431 131.699 114.391 130.619 113.521 129.589C113.301 129.319 112.801 128.619 112.011 127.499C111.221 126.379 110.361 125.169 109.431 123.859C108.501 122.549 107.661 121.359 106.891 120.299C106.131 119.239 105.661 118.589 105.501 118.379C104.411 116.959 103.151 115.689 101.731 114.569C100.311 113.449 98.8107 112.889 97.2307 112.889V112.069C98.9807 112.119 100.531 112.119 101.901 112.069C103.431 112.019 104.961 111.889 106.481 111.699C108.011 111.509 109.441 110.919 110.781 109.939C112.121 108.959 113.171 107.319 113.931 105.029C114.151 104.429 114.311 103.719 114.421 102.899C114.531 102.079 114.561 101.239 114.501 100.359C114.451 98.8294 114.161 97.4694 113.641 96.2694C113.121 95.0694 112.381 94.0294 111.431 93.1594C110.471 92.2894 109.341 91.5994 108.031 91.1094C106.721 90.6194 105.251 90.3494 103.611 90.2894C101.041 90.1794 98.8107 90.1494 96.9007 90.2094C94.9907 90.2594 94.0307 90.2594 94.0307 90.2094C94.0307 90.1594 93.9607 89.9194 93.8307 89.5094C93.6907 89.0994 93.4907 88.4894 93.2207 87.6694H103.781V87.6494H103.771Z" fill="white"/>
<path d="M140.611 92.8098H140.451C140.391 91.5598 139.931 90.5198 139.061 89.6998C138.191 88.8798 137.071 88.4698 135.701 88.4698H134.551V87.6498H141.671L140.611 92.8098ZM140.611 131.53L141.671 136.77H134.551V135.95H135.701C137.061 135.95 138.181 135.51 139.061 134.64C139.941 133.77 140.401 132.73 140.451 131.53H140.611ZM145.691 87.6498V136.77H140.451V87.6498H145.691ZM167.631 87.6498V90.1898H145.531V87.6498H167.631ZM163.871 110.98V113.44H145.531V110.98H163.871ZM167.711 134.23L167.551 136.77H145.531V134.23H167.721H167.711ZM172.301 125.06L167.801 136.77H155.361L158.141 134.23C160.871 134.23 163.061 133.83 164.731 133.04C166.391 132.25 167.741 131.16 168.781 129.76C169.821 128.37 170.721 126.8 171.481 125.05H172.301V125.06ZM167.631 86.3398V88.4698L158.301 87.6498C159.991 87.6498 161.791 87.4998 163.701 87.1998C165.611 86.8998 166.921 86.6098 167.631 86.3398ZM163.871 106.48V111.15H159.611V110.99C160.761 110.99 161.601 110.65 162.151 109.97C162.691 109.29 162.971 108.48 162.971 107.55V106.49H163.871V106.48ZM163.871 113.27V117.94H162.971V116.88C162.971 115.95 162.701 115.15 162.151 114.46C161.601 113.78 160.761 113.44 159.611 113.44V113.28H163.871V113.27ZM167.631 89.9398V95.5898H166.731V94.3598C166.731 93.2098 166.361 92.2299 165.621 91.4099C164.881 90.5899 163.891 90.1798 162.631 90.1798V89.9298H167.631V89.9398Z" fill="white"/>
<path d="M183.761 131.69V136.77H177.621V135.95H179.011C180.261 135.95 181.331 135.54 182.201 134.72C183.071 133.9 183.511 132.89 183.511 131.69H183.761ZM183.591 86.4199L187.111 90.9999L187.191 136.77H183.511V96.6499C183.511 93.8699 183.261 90.4599 182.771 86.4199H183.591ZM183.591 86.4199L228.951 129.16L229.771 137.92L184.411 94.9399L183.591 86.4299V86.4199ZM187.201 131.69C187.201 132.89 187.651 133.9 188.551 134.72C189.451 135.54 190.501 135.95 191.701 135.95H193.091V136.77H186.951V131.69H187.201ZM226.171 92.7199C226.121 91.5199 225.651 90.5099 224.781 89.6899C223.911 88.8699 222.841 88.4599 221.591 88.4599H220.201V87.6399H226.341V92.7199H226.171ZM229.771 87.6499V127.44C229.771 129.19 229.821 130.87 229.931 132.48C230.041 134.09 230.231 135.91 230.501 137.92H229.761L226.161 133.58V87.6499H229.771ZM229.521 92.7199V87.6399H235.661V88.4599H234.271C233.071 88.4599 232.021 88.8699 231.121 89.6899C230.221 90.5099 229.771 91.5199 229.771 92.7199H229.521Z" fill="white"/>
<path d="M250.241 130.79C249.641 132.43 249.721 133.7 250.491 134.6C251.251 135.5 252.131 135.95 253.111 135.95H253.771V136.77H238.131V135.95H238.791C239.941 135.95 241.111 135.55 242.311 134.76C243.511 133.97 244.551 132.65 245.421 130.79H250.251H250.241ZM266.041 86.5L266.611 92.15L247.861 136.52H242.701L262.101 94.93C262.701 93.62 263.201 92.49 263.611 91.53C264.021 90.58 264.391 89.63 264.711 88.71C265.041 87.78 265.231 87.05 265.281 86.5H266.041ZM275.701 117.69V120.15H254.001V117.69H275.701ZM266.041 86.5L288.551 136.28H282.081L264.641 93.79L266.031 86.5H266.041ZM279.871 130.79H286.091C286.911 132.65 287.921 133.97 289.121 134.76C290.321 135.55 291.471 135.95 292.561 135.95H293.221V136.77H276.441V135.95H277.091C278.021 135.95 278.861 135.5 279.631 134.6C280.391 133.7 280.481 132.43 279.881 130.79H279.871Z" fill="white"/>
<path d="M89.2007 92.8094H89.0407C88.9907 91.5594 88.5207 90.5194 87.6507 89.6994C86.7807 88.8794 85.6907 88.4694 84.3807 88.4694H83.2307V87.6494H90.1907L89.2107 92.8094H89.2007ZM89.2007 131.529L90.1807 136.769H83.2207V135.949H84.3707C85.6807 135.949 86.7707 135.509 87.6407 134.639C88.5107 133.769 88.9807 132.729 89.0307 131.529H89.2007ZM94.1907 87.6494V136.769H88.9507V87.6494H94.1907ZM93.9507 131.529H94.2007C94.2507 132.729 94.7207 133.769 95.5907 134.639C96.4607 135.509 97.5507 135.949 98.8707 135.949H99.9307L100.011 136.769H92.9707L93.9507 131.529ZM103.771 87.6494C106.331 87.6494 108.641 87.9494 110.691 88.5494C112.741 89.1494 114.481 90.0194 115.931 91.1694C117.381 92.3194 118.481 93.7094 119.251 95.3494C120.011 96.9894 120.401 98.8394 120.401 100.919C120.401 103.209 119.851 105.339 118.761 107.309C117.671 109.269 116.151 110.889 114.221 112.139C112.281 113.399 110.091 114.159 107.631 114.429C108.561 114.809 109.641 115.659 110.861 116.969C112.091 118.279 113.141 119.559 114.011 120.819C115.431 122.729 116.701 124.379 117.821 125.769C118.941 127.159 120.041 128.489 121.141 129.739C122.291 130.999 123.341 132.089 124.291 133.019C125.251 133.949 126.281 134.669 127.401 135.189C128.521 135.709 129.821 135.969 131.291 135.969V136.789H128.751C125.751 136.789 123.281 136.409 121.341 135.639C119.401 134.879 117.831 133.929 116.631 132.819C115.431 131.699 114.391 130.619 113.521 129.589C113.301 129.319 112.801 128.619 112.011 127.499C111.221 126.379 110.361 125.169 109.431 123.859C108.501 122.549 107.661 121.359 106.891 120.299C106.131 119.239 105.661 118.589 105.501 118.379C104.411 116.959 103.151 115.689 101.731 114.569C100.311 113.449 98.8107 112.889 97.2307 112.889V112.069C98.9807 112.119 100.531 112.119 101.901 112.069C103.431 112.019 104.961 111.889 106.481 111.699C108.011 111.509 109.441 110.919 110.781 109.939C112.121 108.959 113.171 107.319 113.931 105.029C114.151 104.429 114.311 103.719 114.421 102.899C114.531 102.079 114.561 101.239 114.501 100.359C114.451 98.8294 114.161 97.4694 113.641 96.2694C113.121 95.0694 112.381 94.0294 111.431 93.1594C110.471 92.2894 109.341 91.5994 108.031 91.1094C106.721 90.6194 105.251 90.3494 103.611 90.2894C101.041 90.1794 98.8107 90.1494 96.9007 90.2094C94.9907 90.2594 94.0307 90.2594 94.0307 90.2094C94.0307 90.1594 93.9607 89.9194 93.8307 89.5094C93.6907 89.0994 93.4907 88.4894 93.2207 87.6694H103.781V87.6494H103.771Z" stroke="white" stroke-width="1.43" stroke-miterlimit="10"/>
<path d="M140.611 92.8098H140.451C140.391 91.5598 139.931 90.5198 139.061 89.6998C138.191 88.8798 137.071 88.4698 135.701 88.4698H134.551V87.6498H141.671L140.611 92.8098ZM140.611 131.53L141.671 136.77H134.551V135.95H135.701C137.061 135.95 138.181 135.51 139.061 134.64C139.941 133.77 140.401 132.73 140.451 131.53H140.611ZM145.691 87.6498V136.77H140.451V87.6498H145.691ZM167.631 87.6498V90.1898H145.531V87.6498H167.631ZM163.871 110.98V113.44H145.531V110.98H163.871ZM167.711 134.23L167.551 136.77H145.531V134.23H167.721H167.711ZM172.301 125.06L167.801 136.77H155.361L158.141 134.23C160.871 134.23 163.061 133.83 164.731 133.04C166.391 132.25 167.741 131.16 168.781 129.76C169.821 128.37 170.721 126.8 171.481 125.05H172.301V125.06ZM167.631 86.3398V88.4698L158.301 87.6498C159.991 87.6498 161.791 87.4998 163.701 87.1998C165.611 86.8998 166.921 86.6098 167.631 86.3398ZM163.871 106.48V111.15H159.611V110.99C160.761 110.99 161.601 110.65 162.151 109.97C162.691 109.29 162.971 108.48 162.971 107.55V106.49H163.871V106.48ZM163.871 113.27V117.94H162.971V116.88C162.971 115.95 162.701 115.15 162.151 114.46C161.601 113.78 160.761 113.44 159.611 113.44V113.28H163.871V113.27ZM167.631 89.9398V95.5898H166.731V94.3598C166.731 93.2098 166.361 92.2299 165.621 91.4099C164.881 90.5899 163.891 90.1798 162.631 90.1798V89.9298H167.631V89.9398Z" stroke="white" stroke-width="1.43" stroke-miterlimit="10"/>
<path d="M183.591 86.4199L187.111 90.9999L187.191 136.77H183.511V96.6499C183.511 93.8699 183.261 90.4599 182.771 86.4199H183.591ZM183.591 86.4199L228.951 129.16L229.771 137.92L184.411 94.9399L183.591 86.4299V86.4199ZM183.761 131.69V136.77H177.621V135.95H179.011C180.261 135.95 181.331 135.54 182.201 134.72C183.071 133.9 183.511 132.89 183.511 131.69H183.761ZM187.201 131.69C187.201 132.89 187.651 133.9 188.551 134.72C189.451 135.54 190.501 135.95 191.701 135.95H193.091V136.77H186.951V131.69H187.201ZM226.171 92.7199C226.121 91.5199 225.651 90.5099 224.781 89.6899C223.911 88.8699 222.841 88.4599 221.591 88.4599H220.201V87.6399H226.341V92.7199H226.171ZM229.771 87.6499V127.44C229.771 129.19 229.821 130.87 229.931 132.48C230.041 134.09 230.231 135.91 230.501 137.92H229.761L226.161 133.58V87.6499H229.771ZM229.521 92.7199V87.6399H235.661V88.4599H234.271C233.071 88.4599 232.021 88.8699 231.121 89.6899C230.221 90.5099 229.771 91.5199 229.771 92.7199H229.521Z" stroke="white" stroke-width="1.43" stroke-miterlimit="10"/>
<path d="M266.041 86.5L266.611 92.15L247.861 136.52H242.701L262.101 94.93C262.701 93.62 263.201 92.49 263.611 91.53C264.021 90.58 264.391 89.63 264.711 88.71C265.041 87.78 265.231 87.05 265.281 86.5H266.041ZM266.041 86.5L288.551 136.28H282.081L264.641 93.79L266.031 86.5H266.041ZM250.241 130.79C249.641 132.43 249.721 133.7 250.491 134.6C251.251 135.5 252.131 135.95 253.111 135.95H253.771V136.77H238.131V135.95H238.791C239.941 135.95 241.111 135.55 242.311 134.76C243.511 133.97 244.551 132.65 245.421 130.79H250.251H250.241ZM275.701 117.69V120.15H254.001V117.69H275.701ZM279.871 130.79H286.091C286.911 132.65 287.921 133.97 289.121 134.76C290.321 135.55 291.471 135.95 292.561 135.95H293.221V136.77H276.441V135.95H277.091C278.021 135.95 278.861 135.5 279.631 134.6C280.391 133.7 280.481 132.43 279.881 130.79H279.871Z" stroke="white" stroke-width="1.43" stroke-miterlimit="10"/>
<path d="M178.37 74.1802C179.14 74.1802 179.14 72.9902 178.37 72.9902C177.6 72.9902 177.6 74.1802 178.37 74.1802Z" fill="white"/>
<path d="M178.37 74.3794C179.14 74.3794 179.14 73.1895 178.37 73.1895C177.6 73.1895 177.6 74.3794 178.37 74.3794Z" fill="white"/>
<path d="M170.833 46.8691C170.833 46.8691 170.853 46.9091 170.883 46.9091C170.893 46.8691 170.842 46.8291 170.812 46.8491C170.812 46.8791 170.833 46.8991 170.863 46.8991C170.883 46.8791 170.883 46.8491 170.863 46.8291" stroke="white" stroke-width="0.07" stroke-miterlimit="10"/>
<path d="M95.7422 35.4994L118.152 67.7694L137.872 65.9694L169.242 67.7694L191.652 34.5994L175.512 41.7694L171.932 20.2594L154.902 39.9794L145.932 10.3994L130.702 41.7694L126.212 35.4994L116.352 22.0494L112.772 43.5694L95.7422 35.4994Z" fill="white" stroke="white" stroke-width="0.9" stroke-miterlimit="10"/>
<path d="M143.714 57.1227L138.008 62.8291L143.714 68.5355L149.421 62.8291L143.714 57.1227Z" fill="#3A3A3A" stroke="white" stroke-width="0.9" stroke-miterlimit="10"/>
<path d="M91.7013 35.0599C93.684 35.0599 95.2913 33.4526 95.2913 31.4699C95.2913 29.4872 93.684 27.8799 91.7013 27.8799C89.7186 27.8799 88.1113 29.4872 88.1113 31.4699C88.1113 33.4526 89.7186 35.0599 91.7013 35.0599Z" fill="white" stroke="white" stroke-width="0.18" stroke-miterlimit="10"/>
<path d="M114.111 19.8196C116.094 19.8196 117.701 18.2123 117.701 16.2296C117.701 14.2469 116.094 12.6396 114.111 12.6396C112.129 12.6396 110.521 14.2469 110.521 16.2296C110.521 18.2123 112.129 19.8196 114.111 19.8196Z" fill="white" stroke="white" stroke-width="0.18" stroke-miterlimit="10"/>
<path d="M145.49 7.26984C147.473 7.26984 149.08 5.66255 149.08 3.67984C149.08 1.69714 147.473 0.0898438 145.49 0.0898438C143.508 0.0898438 141.9 1.69714 141.9 3.67984C141.9 5.66255 143.508 7.26984 145.49 7.26984Z" fill="white" stroke="white" stroke-width="0.18" stroke-miterlimit="10"/>
<path d="M174.172 18.0198C176.155 18.0198 177.762 16.4125 177.762 14.4298C177.762 12.4471 176.155 10.8398 174.172 10.8398C172.189 10.8398 170.582 12.4471 170.582 14.4298C170.582 16.4125 172.189 18.0198 174.172 18.0198Z" fill="white" stroke="white" stroke-width="0.18" stroke-miterlimit="10"/>
<path d="M197.471 27.8802C199.454 27.8802 201.061 26.2729 201.061 24.2902C201.061 22.3075 199.454 20.7002 197.471 20.7002C195.488 20.7002 193.881 22.3075 193.881 24.2902C193.881 26.2729 195.488 27.8802 197.471 27.8802Z" fill="white" stroke="white" stroke-width="0.18" stroke-miterlimit="10"/>
<path d="M177.78 208.629V209.709C177.78 209.709 177.78 209.789 177.76 209.829C177.75 209.869 177.72 209.899 177.7 209.929C177.68 209.959 177.64 209.979 177.61 209.999C177.58 210.019 177.54 210.019 177.5 210.019C177.5 210.019 177.56 209.969 177.59 209.939C177.62 209.909 177.64 209.869 177.65 209.829C177.66 209.789 177.67 209.749 177.67 209.699V208.629H177.78ZM177.69 208.739C177.69 208.739 177.68 208.689 177.66 208.669C177.64 208.649 177.62 208.639 177.59 208.639H177.57V208.619H177.69V208.729V208.739ZM177.78 208.739V208.629H177.9V208.649H177.88C177.88 208.649 177.83 208.649 177.81 208.679C177.79 208.699 177.78 208.719 177.78 208.749V208.739Z" fill="white"/>
<path d="M178.63 208.609C178.74 208.609 178.84 208.629 178.92 208.679C179 208.729 179.07 208.789 179.12 208.879C179.17 208.969 179.19 209.059 179.19 209.169C179.19 209.279 179.17 209.379 179.12 209.459C179.07 209.539 179.01 209.609 178.92 209.659C178.83 209.709 178.74 209.729 178.63 209.729C178.52 209.729 178.42 209.709 178.34 209.659C178.26 209.609 178.19 209.549 178.14 209.459C178.09 209.379 178.07 209.279 178.07 209.169C178.07 209.059 178.09 208.959 178.14 208.879C178.19 208.799 178.25 208.729 178.34 208.679C178.43 208.629 178.52 208.609 178.63 208.609ZM178.63 209.689C178.72 209.689 178.79 209.669 178.86 209.629C178.93 209.589 178.98 209.529 179.01 209.449C179.04 209.369 179.06 209.279 179.06 209.179C179.06 209.079 179.04 208.989 179.01 208.909C178.98 208.829 178.92 208.769 178.86 208.729C178.79 208.689 178.72 208.659 178.63 208.659C178.54 208.659 178.47 208.679 178.4 208.729C178.33 208.769 178.28 208.829 178.25 208.909C178.22 208.989 178.2 209.079 178.2 209.179C178.2 209.279 178.22 209.369 178.25 209.449C178.28 209.529 178.34 209.589 178.4 209.629C178.47 209.669 178.54 209.689 178.63 209.689Z" fill="white"/>
<path d="M94.5512 153.48V179.79C94.5512 180.84 94.3712 181.83 94.0212 182.74C93.6712 183.65 93.1812 184.45 92.5512 185.13C91.9212 185.81 91.2012 186.34 90.3712 186.73C89.5412 187.12 88.6512 187.31 87.7012 187.31V186.97C88.5312 186.67 89.2712 186.15 89.9412 185.41C90.6012 184.67 91.1312 183.8 91.5212 182.8C91.9112 181.8 92.1012 180.76 92.1012 179.68V153.49H94.5512V153.48ZM92.2212 156.23H92.1112C92.0812 155.58 91.8412 155.02 91.3812 154.56C90.9212 154.1 90.3612 153.86 89.7112 153.86H89.2212V153.48H92.2312V156.22H92.2212V156.23ZM94.4412 156.23V153.49H97.4512V153.87H96.9612C96.3112 153.87 95.7512 154.1 95.2912 154.57C94.8312 155.03 94.5812 155.59 94.5612 156.24H94.4412V156.23Z" fill="white"/>
<path d="M94.5512 153.48V179.79C94.5512 180.84 94.3712 181.83 94.0212 182.74C93.6712 183.65 93.1812 184.45 92.5512 185.13C91.9212 185.81 91.2012 186.34 90.3712 186.73C89.5412 187.12 88.6512 187.31 87.7012 187.31V186.97C88.5312 186.67 89.2712 186.15 89.9412 185.41C90.6012 184.67 91.1312 183.8 91.5212 182.8C91.9112 181.8 92.1012 180.76 92.1012 179.68V153.49H94.5512V153.48ZM92.2212 156.23H92.1112C92.0812 155.58 91.8412 155.02 91.3812 154.56C90.9212 154.1 90.3612 153.86 89.7112 153.86H89.2212V153.48H92.2312V156.22H92.2212V156.23ZM94.4412 156.23V153.49H97.4512V153.87H96.9612C96.3112 153.87 95.7512 154.1 95.2912 154.57C94.8312 155.03 94.5812 155.59 94.5612 156.24H94.4412V156.23Z" stroke="white" stroke-width="1.15" stroke-miterlimit="10"/>
<path d="M119.011 152.96C121.691 152.96 124.051 153.53 126.081 154.67C128.111 155.81 129.691 157.41 130.831 159.46C131.971 161.51 132.541 163.91 132.541 166.64C132.541 169.37 131.971 171.76 130.831 173.82C129.691 175.87 128.111 177.47 126.081 178.61C124.051 179.75 121.701 180.32 119.011 180.32C116.321 180.32 114.011 179.75 111.981 178.61C109.951 177.47 108.371 175.87 107.231 173.82C106.091 171.77 105.521 169.37 105.521 166.64C105.521 163.91 106.091 161.52 107.231 159.46C108.371 157.41 109.951 155.81 111.981 154.67C114.011 153.53 116.351 152.96 119.011 152.96ZM119.011 179.19C121.141 179.19 123.001 178.66 124.591 177.61C126.181 176.56 127.421 175.09 128.311 173.21C129.201 171.33 129.641 169.14 129.641 166.63C129.641 164.12 129.201 161.93 128.311 160.05C127.421 158.17 126.181 156.71 124.591 155.65C123.001 154.6 121.141 154.07 119.011 154.07C116.881 154.07 115.061 154.6 113.471 155.65C111.881 156.7 110.641 158.17 109.751 160.05C108.861 161.93 108.421 164.12 108.421 166.63C108.421 169.14 108.861 171.33 109.751 173.21C110.641 175.09 111.881 176.55 113.471 177.61C115.061 178.66 116.911 179.19 119.011 179.19Z" fill="white"/>
<path d="M119.011 152.96C121.691 152.96 124.051 153.53 126.081 154.67C128.111 155.81 129.691 157.41 130.831 159.46C131.971 161.51 132.541 163.91 132.541 166.64C132.541 169.37 131.971 171.76 130.831 173.82C129.691 175.87 128.111 177.47 126.081 178.61C124.051 179.75 121.701 180.32 119.011 180.32C116.321 180.32 114.011 179.75 111.981 178.61C109.951 177.47 108.371 175.87 107.231 173.82C106.091 171.77 105.521 169.37 105.521 166.64C105.521 163.91 106.091 161.52 107.231 159.46C108.371 157.41 109.951 155.81 111.981 154.67C114.011 153.53 116.351 152.96 119.011 152.96ZM119.011 179.19C121.141 179.19 123.001 178.66 124.591 177.61C126.181 176.56 127.421 175.09 128.311 173.21C129.201 171.33 129.641 169.14 129.641 166.63C129.641 164.12 129.201 161.93 128.311 160.05C127.421 158.17 126.181 156.71 124.591 155.65C123.001 154.6 121.141 154.07 119.011 154.07C116.881 154.07 115.061 154.6 113.471 155.65C111.881 156.7 110.641 158.17 109.751 160.05C108.861 161.93 108.421 164.12 108.421 166.63C108.421 169.14 108.861 171.33 109.751 173.21C110.641 175.09 111.881 176.55 113.471 177.61C115.061 178.66 116.911 179.19 119.011 179.19Z" stroke="white" stroke-width="1.15" stroke-miterlimit="10"/>
<path d="M142.651 156.23H142.541C142.511 155.58 142.271 155.02 141.811 154.56C141.351 154.1 140.791 153.86 140.141 153.86H139.651V153.48H142.661V156.22H142.651V156.23ZM142.651 177.05V179.79H139.641V179.41H140.131C140.781 179.41 141.341 179.18 141.801 178.71C142.261 178.25 142.511 177.69 142.531 177.04H142.651V177.05ZM144.981 153.48V179.79H142.541V153.48H144.981ZM144.871 156.23V153.49H147.881V153.87H147.391C146.741 153.87 146.181 154.1 145.721 154.57C145.261 155.03 145.011 155.59 144.991 156.24H144.871V156.23ZM144.871 177.05H144.981C145.001 177.7 145.251 178.26 145.711 178.72C146.171 179.18 146.731 179.42 147.381 179.42H147.871V179.8H144.861V177.06H144.871V177.05Z" fill="white"/>
<path d="M159.261 177.05C159.081 177.55 159.061 177.98 159.181 178.33C159.301 178.68 159.511 178.95 159.801 179.14C160.091 179.33 160.381 179.42 160.681 179.42H161.021V179.8H153.471V179.42H153.811C154.391 179.42 154.981 179.24 155.601 178.88C156.211 178.52 156.721 177.91 157.121 177.06H159.261V177.05ZM167.341 152.96L167.681 155.59L158.251 179.68H156.001L165.621 156.83C165.901 156.2 166.131 155.66 166.321 155.21C166.511 154.76 166.671 154.32 166.811 153.89C166.951 153.46 167.021 153.15 167.021 152.95H167.361H167.341V152.96ZM172.641 169.53V170.66H160.881V169.53H172.641ZM167.341 152.96L178.461 179.57H175.271L166.591 156.53L167.341 152.96ZM174.331 177.05H177.411C177.791 177.9 178.291 178.51 178.911 178.87C179.541 179.23 180.141 179.41 180.711 179.41H181.011V179.79H172.551V179.41H172.891C173.371 179.41 173.791 179.2 174.171 178.79C174.551 178.38 174.601 177.79 174.321 177.04L174.331 177.05Z" fill="white"/>
<path d="M193.801 152.96C194.201 152.96 194.631 152.99 195.101 153.04C195.561 153.09 196.011 153.16 196.451 153.25C196.891 153.34 197.291 153.42 197.651 153.51C198.011 153.6 198.291 153.69 198.501 153.79V157.96H198.161C198.161 156.76 197.751 155.81 196.921 155.12C196.091 154.43 195.091 154.09 193.911 154.09C192.531 154.09 191.421 154.52 190.571 155.39C189.721 156.25 189.291 157.26 189.291 158.42C189.291 158.9 189.401 159.45 189.611 160.09C189.821 160.73 190.221 161.32 190.791 161.88L198.191 168.72C198.941 169.42 199.441 170.17 199.691 170.97C199.941 171.77 200.071 172.55 200.071 173.3C200.071 175.38 199.441 177.07 198.171 178.37C196.901 179.67 195.191 180.32 193.041 180.32C192.441 180.32 191.731 180.26 190.921 180.13C190.111 180.01 189.321 179.79 188.551 179.47C187.781 179.15 187.151 178.75 186.651 178.25C186.571 177.85 186.541 177.35 186.541 176.75C186.541 176.15 186.591 175.52 186.691 174.85C186.791 174.19 186.931 173.58 187.101 173.03H187.441C187.311 174.31 187.481 175.42 187.931 176.37C188.381 177.32 189.041 178.04 189.901 178.53C190.761 179.02 191.751 179.24 192.851 179.19C194.231 179.11 195.411 178.63 196.401 177.74C197.391 176.85 197.881 175.65 197.881 174.15C197.881 173.42 197.751 172.77 197.501 172.18C197.251 171.59 196.891 171.08 196.411 170.66L189.191 163.97C188.441 163.27 187.911 162.5 187.611 161.66C187.311 160.82 187.161 160.04 187.161 159.31C187.161 158.26 187.411 157.24 187.911 156.27C188.411 155.29 189.161 154.5 190.151 153.88C191.141 153.27 192.351 152.96 193.781 152.96H193.801ZM198.491 153.33V154.12H195.631V153.33H198.491Z" fill="white"/>
<path d="M142.651 156.23H142.541C142.511 155.58 142.271 155.02 141.811 154.56C141.351 154.1 140.791 153.86 140.141 153.86H139.651V153.48H142.661V156.22H142.651V156.23ZM142.651 177.05V179.79H139.641V179.41H140.131C140.781 179.41 141.341 179.18 141.801 178.71C142.261 178.25 142.511 177.69 142.531 177.04H142.651V177.05ZM144.981 153.48V179.79H142.541V153.48H144.981ZM144.871 156.23V153.49H147.881V153.87H147.391C146.741 153.87 146.181 154.1 145.721 154.57C145.261 155.03 145.011 155.59 144.991 156.24H144.871V156.23ZM144.871 177.05H144.981C145.001 177.7 145.251 178.26 145.711 178.72C146.171 179.18 146.731 179.42 147.381 179.42H147.871V179.8H144.861V177.06H144.871V177.05Z" stroke="white" stroke-width="1.15" stroke-miterlimit="10"/>
<path d="M167.341 152.96L167.681 155.59L158.251 179.68H156.001L165.621 156.83C165.901 156.2 166.131 155.66 166.321 155.21C166.511 154.76 166.671 154.32 166.811 153.89C166.951 153.46 167.021 153.15 167.021 152.95H167.361H167.341V152.96ZM167.341 152.96L178.461 179.57H175.271L166.591 156.53L167.341 152.96ZM159.261 177.05C159.081 177.55 159.061 177.98 159.181 178.33C159.301 178.68 159.511 178.95 159.801 179.14C160.091 179.33 160.381 179.42 160.681 179.42H161.021V179.8H153.471V179.42H153.811C154.391 179.42 154.981 179.24 155.601 178.88C156.211 178.52 156.721 177.91 157.121 177.06H159.261V177.05ZM172.641 169.53V170.66H160.881V169.53H172.641ZM174.331 177.05H177.411C177.791 177.9 178.291 178.51 178.911 178.87C179.541 179.23 180.141 179.41 180.711 179.41H181.011V179.79H172.551V179.41H172.891C173.371 179.41 173.791 179.2 174.171 178.79C174.551 178.38 174.601 177.79 174.321 177.04L174.331 177.05Z" stroke="white" stroke-width="1.15" stroke-miterlimit="10"/>
<path d="M193.801 152.96C194.201 152.96 194.631 152.99 195.101 153.04C195.561 153.09 196.011 153.16 196.451 153.25C196.891 153.34 197.291 153.42 197.651 153.51C198.011 153.6 198.291 153.69 198.501 153.79V157.96H198.161C198.161 156.76 197.751 155.81 196.921 155.12C196.091 154.43 195.091 154.09 193.911 154.09C192.531 154.09 191.421 154.52 190.571 155.39C189.721 156.25 189.291 157.26 189.291 158.42C189.291 158.9 189.401 159.45 189.611 160.09C189.821 160.73 190.221 161.32 190.791 161.88L198.191 168.72C198.941 169.42 199.441 170.17 199.691 170.97C199.941 171.77 200.071 172.55 200.071 173.3C200.071 175.38 199.441 177.07 198.171 178.37C196.901 179.67 195.191 180.32 193.041 180.32C192.441 180.32 191.731 180.26 190.921 180.13C190.111 180.01 189.321 179.79 188.551 179.47C187.781 179.15 187.151 178.75 186.651 178.25C186.571 177.85 186.541 177.35 186.541 176.75C186.541 176.15 186.591 175.52 186.691 174.85C186.791 174.19 186.931 173.58 187.101 173.03H187.441C187.311 174.31 187.481 175.42 187.931 176.37C188.381 177.32 189.041 178.04 189.901 178.53C190.761 179.02 191.751 179.24 192.851 179.19C194.231 179.11 195.411 178.63 196.401 177.74C197.391 176.85 197.881 175.65 197.881 174.15C197.881 173.42 197.751 172.77 197.501 172.18C197.251 171.59 196.891 171.08 196.411 170.66L189.191 163.97C188.441 163.27 187.911 162.5 187.611 161.66C187.311 160.82 187.161 160.04 187.161 159.31C187.161 158.26 187.411 157.24 187.911 156.27C188.411 155.29 189.161 154.5 190.151 153.88C191.141 153.27 192.351 152.96 193.781 152.96H193.801ZM198.491 153.33V154.12H195.631V153.33H198.491Z" stroke="white" stroke-width="1.15" stroke-miterlimit="10"/>
</g>
<defs>
<clipPath id="clip0_46_102">
<rect width="293.94" height="210.02" fill="white"/>
</clipPath>
</defs>
</svg>
