<svg width="62" height="51" viewBox="0 0 62 51" fill="none" xmlns="http://www.w3.org/2000/svg">
<path fill-rule="evenodd" clip-rule="evenodd" d="M0 48.1667C0 47.4152 0.296915 46.6945 0.825427 46.1632C1.35394 45.6318 2.07075 45.3333 2.81818 45.3333H59.1818C59.9292 45.3333 60.6461 45.6318 61.1746 46.1632C61.7031 46.6945 62 47.4152 62 48.1667C62 48.9181 61.7031 49.6388 61.1746 50.1701C60.6461 50.7015 59.9292 51 59.1818 51H2.81818C2.07075 51 1.35394 50.7015 0.825427 50.1701C0.296915 49.6388 0 48.9181 0 48.1667ZM0 25.5C0 24.7486 0.296915 24.0279 0.825427 23.4965C1.35394 22.9652 2.07075 22.6667 2.81818 22.6667H59.1818C59.9292 22.6667 60.6461 22.9652 61.1746 23.4965C61.7031 24.0279 62 24.7486 62 25.5C62 26.2514 61.7031 26.9721 61.1746 27.5035C60.6461 28.0348 59.9292 28.3333 59.1818 28.3333H2.81818C2.07075 28.3333 1.35394 28.0348 0.825427 27.5035C0.296915 26.9721 0 26.2514 0 25.5ZM0 2.83333C0 2.08189 0.296915 1.36122 0.825427 0.829865C1.35394 0.298512 2.07075 0 2.81818 0H59.1818C59.9292 0 60.6461 0.298512 61.1746 0.829865C61.7031 1.36122 62 2.08189 62 2.83333C62 3.58478 61.7031 4.30545 61.1746 4.8368C60.6461 5.36816 59.9292 5.66667 59.1818 5.66667H2.81818C2.07075 5.66667 1.35394 5.36816 0.825427 4.8368C0.296915 4.30545 0 3.58478 0 2.83333Z" fill="white"/>
</svg>
