<svg width="82" height="82" viewBox="0 0 82 82" fill="none" xmlns="http://www.w3.org/2000/svg">
<g clip-path="url(#clip0_49_259)">
<path d="M69.7051 11.921C65.9465 8.12595 61.4698 5.11732 56.5361 3.07064C51.6024 1.02396 46.3106 -0.0197867 40.9692 0.000284053C18.5884 0.000284053 0.3485 18.235 0.328 40.621C0.328 47.7909 2.20375 54.766 5.74513 60.9417L0 82.0003L21.5455 76.3525C27.5032 79.603 34.1825 81.3036 40.9692 81.2982H40.9897C63.3758 81.2982 81.6105 63.0634 81.631 40.6569C81.6356 35.317 80.5837 30.0289 78.5361 25.0971C76.4884 20.1654 73.4906 15.6874 69.7051 11.921ZM40.9692 74.4204C34.9175 74.4156 28.9779 72.7874 23.7698 69.7054L22.5397 68.9674L9.758 72.3192L13.1712 59.85L12.3717 58.5637C8.98826 53.1841 7.19882 46.9557 7.21087 40.6005C7.21087 22.0173 22.3655 6.85753 40.9897 6.85753C45.4267 6.84957 49.8213 7.71994 53.9202 9.41845C58.0192 11.117 61.7414 13.61 64.8723 16.7539C68.0134 19.886 70.5036 23.6088 72.1994 27.7077C73.8953 31.8066 74.7632 36.2006 74.7533 40.6364C74.7327 59.2863 59.5781 74.4204 40.9692 74.4204ZM59.4961 49.1337C58.4865 48.6263 53.4999 46.1714 52.562 45.8229C51.6292 45.4898 50.9476 45.3155 50.2814 46.3303C49.5998 47.3399 47.6522 49.641 47.068 50.3022C46.4837 50.9838 45.879 51.0607 44.8643 50.5584C43.8546 50.0459 40.5798 48.9799 36.7052 45.5103C33.6815 42.8197 31.6571 39.4884 31.0524 38.4788C30.4681 37.464 30.996 36.9208 31.5034 36.4134C31.9492 35.9624 32.513 35.2244 33.0204 34.6402C33.5329 34.0559 33.702 33.6254 34.0351 32.9489C34.3682 32.2622 34.2094 31.6779 33.9582 31.1705C33.702 30.6632 31.6776 25.656 30.8218 23.6368C30.0017 21.6432 29.1664 21.9199 28.5411 21.8943C27.9569 21.8584 27.2753 21.8584 26.5936 21.8584C26.0789 21.8715 25.5725 21.9907 25.106 22.2085C24.6395 22.4263 24.223 22.7381 23.8825 23.1243C22.9497 24.139 20.3411 26.5939 20.3411 31.601C20.3411 36.6082 23.9799 41.4205 24.4924 42.1022C24.9946 42.7838 31.6366 53.0287 41.8302 57.4362C44.239 58.4868 46.1353 59.1069 47.6164 59.5784C50.0508 60.3574 52.2494 60.2395 54.0021 59.9884C55.9496 59.6912 60.0035 57.5284 60.8594 55.1555C61.6999 52.7775 61.6999 50.748 61.4436 50.3227C61.1925 49.8922 60.5109 49.641 59.4961 49.1337Z" fill="black"/>
</g>
<defs>
<clipPath id="clip0_49_259">
<rect width="82" height="82" fill="white"/>
</clipPath>
</defs>
</svg>
